<svg width="68" height="54" viewBox="0 0 68 54" fill="none" xmlns="http://www.w3.org/2000/svg">
<path d="M60.667 13.4666L34.0003 30.1333L7.33366 13.4666V6.79997L34.0003 23.4666L60.667 6.79997M60.667 0.133301H7.33366C3.63366 0.133301 0.666992 3.09997 0.666992 6.79997V46.8C0.666992 48.5681 1.36937 50.2638 2.61961 51.514C3.86986 52.7643 5.56555 53.4666 7.33366 53.4666H60.667C62.4351 53.4666 64.1308 52.7643 65.381 51.514C66.6313 50.2638 67.3337 48.5681 67.3337 46.8V6.79997C67.3337 5.03186 66.6313 3.33616 65.381 2.08592C64.1308 0.835679 62.4351 0.133301 60.667 0.133301Z" fill="white"/>
</svg>
