<svg width="160" height="167" viewBox="0 0 160 167" fill="none" xmlns="http://www.w3.org/2000/svg">
<g clip-path="url(#clip0_26_110)">
<path d="M106.891 -34.0237C109.718 -34.0237 112.248 -32.1927 113.2 -29.4513L119.99 -9.87091C122.423 -9.24058 124.51 -8.61025 126.28 -7.9499C128.213 -7.22952 130.704 -6.13894 133.782 -4.64815L149.593 -13.3528C150.884 -14.0641 152.361 -14.3208 153.804 -14.0845C155.247 -13.8482 156.577 -13.1315 157.595 -12.0421L171.502 2.91585C173.349 4.90691 173.868 7.81844 172.829 10.3598L165.414 28.4394C166.645 30.7906 167.626 32.8017 168.377 34.4826C169.184 36.3135 170.185 38.8349 171.377 42.0866L188.66 49.7906C191.257 50.9413 192.863 53.6427 192.69 56.5342L191.42 77.2952C191.334 78.644 190.868 79.9365 190.082 81.0126C189.295 82.0886 188.222 82.9008 186.996 83.3484L170.627 89.4016C170.156 91.7529 169.665 93.7639 169.146 95.4648C168.308 98.0917 167.352 100.676 166.28 103.209L174.503 122.119C175.083 123.448 175.24 124.935 174.949 126.362C174.658 127.79 173.936 129.083 172.887 130.053L157.249 144.581C156.219 145.534 154.934 146.136 153.566 146.308C152.197 146.479 150.811 146.212 149.593 145.541L133.474 136.657C130.952 138.046 128.35 139.272 125.684 140.329L118.644 143.07L112.392 161.08C111.929 162.398 111.093 163.541 109.995 164.357C108.896 165.173 107.586 165.624 106.237 165.652L87.9634 166.082C86.5781 166.12 85.2155 165.71 84.0633 164.909C82.9111 164.108 82.0257 162.956 81.5292 161.61L74.162 141.329C71.6485 140.435 69.1597 139.468 66.6988 138.428C64.6859 137.521 62.7035 136.544 60.7551 135.496L42.4815 143.62C41.2775 144.155 39.95 144.313 38.6608 144.077C37.3716 143.841 36.1762 143.22 35.2202 142.29L21.6978 129.093C20.691 128.114 20.0054 126.832 19.7379 125.426C19.4703 124.02 19.6345 122.562 20.2071 121.258L28.0647 103.449C27.0196 101.34 26.0508 99.1903 25.1601 97.0056C24.1205 94.3315 23.1583 91.6255 22.2748 88.8913L5.05926 83.4385C3.6599 82.9985 2.43936 82.0901 1.58719 80.8544C0.735023 79.6187 0.298921 78.1248 0.346613 76.6048L1.01985 57.3847C1.06777 56.1306 1.44434 54.9141 2.10883 53.8666C2.77333 52.8191 3.70046 51.9805 4.78997 51.4415L22.8519 42.4167C23.6886 39.2251 24.4196 36.7438 25.064 34.9328C25.9713 32.514 26.9789 30.1372 28.0839 27.809L20.2551 10.5999C19.661 9.29305 19.4806 7.82384 19.7398 6.40356C19.999 4.98328 20.6846 3.68511 21.6978 2.69574L35.201 -10.5713C36.1475 -11.5 37.3319 -12.1245 38.6116 -12.3694C39.8913 -12.6144 41.2118 -12.4694 42.4142 -11.952L60.6685 -4.10786C62.6882 -5.50861 64.5155 -6.6392 66.1698 -7.54969C68.1414 -8.64026 70.7766 -9.78087 74.0947 -11.0115L80.4424 -29.4313C80.9117 -30.7793 81.7695 -31.9438 82.8987 -32.7657C84.0278 -33.5877 85.3734 -34.027 86.7515 -34.0237H106.891ZM96.7539 36.2035C80.7213 36.2035 67.7278 49.5605 67.7278 66.0493C67.7278 82.538 80.7213 95.9051 96.7539 95.9051C112.777 95.9051 125.77 82.538 125.77 66.0493C125.77 49.5605 112.787 36.2035 96.7539 36.2035Z" fill="url(#paint0_linear_26_110)"/>
</g>
<defs>
<linearGradient id="paint0_linear_26_110" x1="0.343079" y1="-34.0237" x2="235.185" y2="71.8817" gradientUnits="userSpaceOnUse">
<stop stop-color="#208275"/>
<stop offset="1" stop-color="#2DD4BF"/>
</linearGradient>
<clipPath id="clip0_26_110">
<rect width="192.353" height="200.106" fill="white" transform="translate(0.347046 -34.0237)"/>
</clipPath>
</defs>
</svg>
