<?xml version="1.0" encoding="utf-8"?><svg viewBox="0 0 71 34" xmlns="http://www.w3.org/2000/svg" xmlns:xlink="http://www.w3.org/1999/xlink"><style>:root>svg{display:none}:root>svg:target{display:block}</style><svg viewBox="0 0 71 34" id="arrow-left" xmlns="http://www.w3.org/2000/svg"><path fill-rule="evenodd" clip-rule="evenodd" d="M16.56 33.121L0 16.561 16.56 0l2.122 2.121-12.94 12.94h64.38v3H5.741L18.683 31l-2.121 2.121z"/></svg><svg viewBox="0 0 71 34" id="arrow-right" xmlns="http://www.w3.org/2000/svg"><path fill-rule="evenodd" clip-rule="evenodd" d="M53.682 0l16.56 16.56-16.56 16.561L51.561 31 64.5 18.06H.121v-3H64.5L51.56 2.122 53.683 0z"/></svg><svg viewBox="0 0 30 31" id="clock" xmlns="http://www.w3.org/2000/svg"><path d="M15 3C8.107 3 2.5 8.607 2.5 15.5 2.5 22.392 8.107 28 15 28c6.892 0 12.5-5.608 12.5-12.5C27.5 8.607 21.892 3 15 3zm0 22.5c-5.514 0-10-4.486-10-10s4.486-10 10-10 10 4.486 10 10-4.486 10-10 10z"/><path d="M16.25 9.25h-2.5v6.767l4.116 4.117 1.768-1.768-3.384-3.383V9.25z"/></svg><svg viewBox="0 0 30 30" id="close" xmlns="http://www.w3.org/2000/svg"><path d="M16.518 15l7.69-9.167a.233.233 0 00-.179-.384h-2.338a.477.477 0 00-.36.167l-6.343 7.562-6.342-7.562a.468.468 0 00-.36-.167h-2.34a.233.233 0 00-.178.384L13.459 15l-7.69 9.167a.233.233 0 00.178.384h2.338c.138 0 .27-.062.36-.167l6.343-7.562 6.343 7.562a.47.47 0 00.36.167h2.338c.2 0 .308-.232.179-.384L16.518 15z"/></svg><svg viewBox="0 0 32 32" id="coins" xmlns="http://www.w3.org/2000/svg"><path d="M21 4c-1.793 0-3.418.336-4.688.969C15.043 5.602 14 6.633 14 8v4c0 .129.043.254.063.375A12.176 12.176 0 0011 12c-1.793 0-3.418.336-4.688.969C5.043 13.602 4 14.633 4 16v8c0 1.367 1.043 2.398 2.313 3.031C7.582 27.664 9.207 28 11 28c1.793 0 3.418-.336 4.688-.969C16.956 26.398 18 25.367 18 24v-.406c.978.264 1.987.4 3 .406 1.793 0 3.418-.336 4.688-.969C26.956 22.398 28 21.367 28 20V8c0-1.367-1.043-2.398-2.313-3.031C24.419 4.336 22.794 4 21 4zm0 2c1.523 0 2.879.328 3.781.781C25.684 7.234 26 7.711 26 8c0 .29-.316.766-1.219 1.219C23.88 9.672 22.523 10 21 10c-1.523 0-2.879-.328-3.781-.781C16.316 8.766 16 8.289 16 8c0-.29.316-.766 1.219-1.219C18.12 6.328 19.477 6 21 6zm-5 4.844c.105.058.203.133.313.187 1.269.633 2.894.969 4.687.969 1.793 0 3.418-.336 4.688-.969.109-.054.207-.129.312-.187V12c0 .29-.316.766-1.219 1.219-.902.453-2.258.781-3.781.781-1.523 0-2.879-.328-3.781-.781C16.316 12.766 16 12.289 16 12v-1.156zM11 14c1.523 0 2.879.328 3.781.781.903.453 1.219.93 1.219 1.219 0 .29-.316.766-1.219 1.219-.902.453-2.258.781-3.781.781-1.523 0-2.879-.328-3.781-.781C6.316 16.766 6 16.289 6 16c0-.29.316-.766 1.219-1.219C8.12 14.328 9.477 14 11 14zm15 .844V16c0 .29-.316.766-1.219 1.219-.902.453-2.258.781-3.781.781a9.5 9.5 0 01-3-.469V16c0-.129-.043-.254-.063-.375.93.242 1.961.375 3.063.375 1.793 0 3.418-.336 4.688-.969.109-.054.207-.129.312-.187zm-20 4c.105.058.203.133.313.187C7.582 19.664 9.207 20 11 20c1.793 0 3.418-.336 4.688-.969.109-.054.207-.129.312-.187V20c0 .29-.316.766-1.219 1.219-.902.453-2.258.781-3.781.781-1.523 0-2.879-.328-3.781-.781C6.316 20.766 6 20.289 6 20v-1.156zm20 0V20c0 .29-.316.766-1.219 1.219-.902.453-2.258.781-3.781.781-1.137 0-2.164-.16-3-.438v-1.937c.918.242 1.918.375 3 .375 1.793 0 3.418-.336 4.688-.969.109-.054.207-.129.312-.187zm-20 4c.105.058.203.133.313.187C7.582 23.664 9.207 24 11 24c1.793 0 3.418-.336 4.688-.969.109-.054.207-.129.312-.187V24c0 .29-.316.766-1.219 1.219-.902.453-2.258.781-3.781.781-1.523 0-2.879-.328-3.781-.781C6.316 24.766 6 24.289 6 24v-1.156z"/></svg><svg viewBox="0 0 32 32" id="fast-arrow-right" xmlns="http://www.w3.org/2000/svg"><path fill-rule="evenodd" clip-rule="evenodd" d="M3.099 6.134a1.25 1.25 0 011.767-.035l8.842 8.5a1.25 1.25 0 010 1.802l-8.842 8.5A1.25 1.25 0 113.134 23.1l7.904-7.599-7.904-7.599a1.25 1.25 0 01-.035-1.767zm15.158 0a1.25 1.25 0 011.767-.035l8.842 8.5a1.25 1.25 0 010 1.802l-8.842 8.5a1.25 1.25 0 11-1.732-1.802l7.904-7.599-7.904-7.599a1.25 1.25 0 01-.035-1.767z"/></svg><svg viewBox="0 0 30 30" id="payment" xmlns="http://www.w3.org/2000/svg"><path d="M0 7.5a3.75 3.75 0 013.75-3.75h22.5A3.75 3.75 0 0130 7.5v15a3.75 3.75 0 01-3.75 3.75H3.75A3.75 3.75 0 010 22.5v-15zm3.75-1.875A1.875 1.875 0 001.875 7.5v1.875h26.25V7.5a1.875 1.875 0 00-1.875-1.875H3.75zm24.375 7.5H1.875V22.5a1.875 1.875 0 001.875 1.875h22.5a1.875 1.875 0 001.875-1.875v-9.375z"/><path d="M3.75 18.75a1.875 1.875 0 011.875-1.875H7.5a1.875 1.875 0 011.875 1.875v1.875A1.875 1.875 0 017.5 22.5H5.625a1.875 1.875 0 01-1.875-1.875V18.75z"/></svg><svg viewBox="0 0 30 30" id="phone" xmlns="http://www.w3.org/2000/svg"><path d="M23.746 25C13.083 25.015 4.99 16.825 5 6.254 5 5.563 5.56 5 6.25 5h3.3c.619 0 1.145.455 1.236 1.067a15.523 15.523 0 001.269 4.247l.129.277a.884.884 0 01-.288 1.09c-1.022.73-1.412 2.199-.616 3.344a14.79 14.79 0 003.695 3.696c1.146.795 2.615.405 3.344-.616a.883.883 0 011.091-.289l.276.128a15.481 15.481 0 004.247 1.27A1.252 1.252 0 0125 20.45v3.299A1.25 1.25 0 0123.749 25h-.003z"/></svg></svg>