<?xml version="1.0" encoding="utf-8"?><svg viewBox="0 0 170 140" xmlns="http://www.w3.org/2000/svg" xmlns:xlink="http://www.w3.org/1999/xlink"><style>:root>svg{display:none}:root>svg:target{display:block}</style><svg viewBox="0 0 71 34" id="arrow-left" xmlns="http://www.w3.org/2000/svg"><path fill-rule="evenodd" clip-rule="evenodd" d="M16.56 33.121L0 16.561 16.56 0l2.122 2.121-12.94 12.94h64.38v3H5.741L18.683 31l-2.121 2.121z"/></svg><svg viewBox="0 0 71 34" id="arrow-right" xmlns="http://www.w3.org/2000/svg"><path fill-rule="evenodd" clip-rule="evenodd" d="M53.682 0l16.56 16.56-16.56 16.561L51.561 31 64.5 18.06H.121v-3H64.5L51.56 2.122 53.683 0z"/></svg><svg viewBox="0 0 35 71" id="arrow-up" xmlns="http://www.w3.org/2000/svg"><path fill-rule="evenodd" clip-rule="evenodd" d="M.94 17.44L17.5.878l16.56 16.56-2.12 2.122L19 6.62V71h-3V6.621L3.06 19.561.94 17.439z"/></svg><svg viewBox="0 0 30 31" id="clock" xmlns="http://www.w3.org/2000/svg"><path d="M15 3C8.107 3 2.5 8.607 2.5 15.5 2.5 22.392 8.107 28 15 28c6.892 0 12.5-5.608 12.5-12.5C27.5 8.607 21.892 3 15 3zm0 22.5c-5.514 0-10-4.486-10-10s4.486-10 10-10 10 4.486 10 10-4.486 10-10 10z"/><path d="M16.25 9.25h-2.5v6.767l4.116 4.117 1.768-1.768-3.384-3.383V9.25z"/></svg><svg viewBox="0 0 30 30" id="close" xmlns="http://www.w3.org/2000/svg"><path d="M16.518 15l7.69-9.167a.233.233 0 00-.179-.384h-2.338a.477.477 0 00-.36.167l-6.343 7.562-6.342-7.562a.468.468 0 00-.36-.167h-2.34a.233.233 0 00-.178.384L13.459 15l-7.69 9.167a.233.233 0 00.178.384h2.338c.138 0 .27-.062.36-.167l6.343-7.562 6.343 7.562a.47.47 0 00.36.167h2.338c.2 0 .308-.232.179-.384L16.518 15z"/></svg><svg viewBox="0 0 32 32" id="coins" xmlns="http://www.w3.org/2000/svg"><path d="M21 4c-1.793 0-3.418.336-4.688.969C15.043 5.602 14 6.633 14 8v4c0 .129.043.254.063.375A12.176 12.176 0 0011 12c-1.793 0-3.418.336-4.688.969C5.043 13.602 4 14.633 4 16v8c0 1.367 1.043 2.398 2.313 3.031C7.582 27.664 9.207 28 11 28c1.793 0 3.418-.336 4.688-.969C16.956 26.398 18 25.367 18 24v-.406c.978.264 1.987.4 3 .406 1.793 0 3.418-.336 4.688-.969C26.956 22.398 28 21.367 28 20V8c0-1.367-1.043-2.398-2.313-3.031C24.419 4.336 22.794 4 21 4zm0 2c1.523 0 2.879.328 3.781.781C25.684 7.234 26 7.711 26 8c0 .29-.316.766-1.219 1.219C23.88 9.672 22.523 10 21 10c-1.523 0-2.879-.328-3.781-.781C16.316 8.766 16 8.289 16 8c0-.29.316-.766 1.219-1.219C18.12 6.328 19.477 6 21 6zm-5 4.844c.105.058.203.133.313.187 1.269.633 2.894.969 4.687.969 1.793 0 3.418-.336 4.688-.969.109-.054.207-.129.312-.187V12c0 .29-.316.766-1.219 1.219-.902.453-2.258.781-3.781.781-1.523 0-2.879-.328-3.781-.781C16.316 12.766 16 12.289 16 12v-1.156zM11 14c1.523 0 2.879.328 3.781.781.903.453 1.219.93 1.219 1.219 0 .29-.316.766-1.219 1.219-.902.453-2.258.781-3.781.781-1.523 0-2.879-.328-3.781-.781C6.316 16.766 6 16.289 6 16c0-.29.316-.766 1.219-1.219C8.12 14.328 9.477 14 11 14zm15 .844V16c0 .29-.316.766-1.219 1.219-.902.453-2.258.781-3.781.781a9.5 9.5 0 01-3-.469V16c0-.129-.043-.254-.063-.375.93.242 1.961.375 3.063.375 1.793 0 3.418-.336 4.688-.969.109-.054.207-.129.312-.187zm-20 4c.105.058.203.133.313.187C7.582 19.664 9.207 20 11 20c1.793 0 3.418-.336 4.688-.969.109-.054.207-.129.312-.187V20c0 .29-.316.766-1.219 1.219-.902.453-2.258.781-3.781.781-1.523 0-2.879-.328-3.781-.781C6.316 20.766 6 20.289 6 20v-1.156zm20 0V20c0 .29-.316.766-1.219 1.219-.902.453-2.258.781-3.781.781-1.137 0-2.164-.16-3-.438v-1.937c.918.242 1.918.375 3 .375 1.793 0 3.418-.336 4.688-.969.109-.054.207-.129.312-.187zm-20 4c.105.058.203.133.313.187C7.582 23.664 9.207 24 11 24c1.793 0 3.418-.336 4.688-.969.109-.054.207-.129.312-.187V24c0 .29-.316.766-1.219 1.219-.902.453-2.258.781-3.781.781-1.523 0-2.879-.328-3.781-.781C6.316 24.766 6 24.289 6 24v-1.156z"/></svg><svg viewBox="0 0 68 54" id="email" xmlns="http://www.w3.org/2000/svg"><path d="M60.667 13.467L34 30.133 7.334 13.467V6.8L34 23.467 60.667 6.8m0-6.667H7.334A6.644 6.644 0 00.667 6.8v40a6.667 6.667 0 006.667 6.667h53.333a6.666 6.666 0 006.667-6.667v-40A6.667 6.667 0 0060.667.133z"/></svg><svg viewBox="0 0 32 32" id="fast-arrow-right" xmlns="http://www.w3.org/2000/svg"><path fill-rule="evenodd" clip-rule="evenodd" d="M3.099 6.134a1.25 1.25 0 011.767-.035l8.842 8.5a1.25 1.25 0 010 1.802l-8.842 8.5A1.25 1.25 0 113.134 23.1l7.904-7.599-7.904-7.599a1.25 1.25 0 01-.035-1.767zm15.158 0a1.25 1.25 0 011.767-.035l8.842 8.5a1.25 1.25 0 010 1.802l-8.842 8.5a1.25 1.25 0 11-1.732-1.802l7.904-7.599-7.904-7.599a1.25 1.25 0 01-.035-1.767z"/></svg><svg viewBox="0 0 80 80" id="location" xmlns="http://www.w3.org/2000/svg"><path d="M40 5a27.532 27.532 0 00-27.5 27.5A27.223 27.223 0 0018.04 49s.75.987.873 1.13L40 75l21.097-24.883c.11-.132.863-1.117.863-1.117l.002-.008A27.212 27.212 0 0067.5 32.5 27.533 27.533 0 0040 5zm0 37.5a10 10 0 1110-10 10.012 10.012 0 01-10 10z"/></svg><svg viewBox="0 0 30 30" id="payment" xmlns="http://www.w3.org/2000/svg"><path d="M0 7.5a3.75 3.75 0 013.75-3.75h22.5A3.75 3.75 0 0130 7.5v15a3.75 3.75 0 01-3.75 3.75H3.75A3.75 3.75 0 010 22.5v-15zm3.75-1.875A1.875 1.875 0 001.875 7.5v1.875h26.25V7.5a1.875 1.875 0 00-1.875-1.875H3.75zm24.375 7.5H1.875V22.5a1.875 1.875 0 001.875 1.875h22.5a1.875 1.875 0 001.875-1.875v-9.375z"/><path d="M3.75 18.75a1.875 1.875 0 011.875-1.875H7.5a1.875 1.875 0 011.875 1.875v1.875A1.875 1.875 0 017.5 22.5H5.625a1.875 1.875 0 01-1.875-1.875V18.75z"/></svg><svg viewBox="0 0 30 30" id="phone" xmlns="http://www.w3.org/2000/svg"><path d="M23.746 25C13.083 25.015 4.99 16.825 5 6.254 5 5.563 5.56 5 6.25 5h3.3c.619 0 1.145.455 1.236 1.067a15.523 15.523 0 001.269 4.247l.129.277a.884.884 0 01-.288 1.09c-1.022.73-1.412 2.199-.616 3.344a14.79 14.79 0 003.695 3.696c1.146.795 2.615.405 3.344-.616a.883.883 0 011.091-.289l.276.128a15.481 15.481 0 004.247 1.27A1.252 1.252 0 0125 20.45v3.299A1.25 1.25 0 0123.749 25h-.003z"/></svg><svg viewBox="0 0 120 140" id="useful-service-1" xmlns="http://www.w3.org/2000/svg"><path fill-rule="evenodd" clip-rule="evenodd" d="M26.318.117c-.33.052-.862.34-1.183.642-.581.548-.581.549-.581 4.453v3.905H13.189c-8.331 0-11.522.073-11.955.274C-.086 10.003 0 5.485 0 72.548v61.622l.658.748.657.748 37.354.114 37.354.115 2.648 1.333c1.723.868 3.572 1.583 5.293 2.048 2.51.677 2.865.715 6.925.724 4.47.009 5.42-.115 8.898-1.165 5.448-1.645 10.964-5.623 14.617-10.542 1.509-2.032 3.694-6.528 4.403-9.058 2.904-10.369.442-20.812-6.723-28.517A29.098 29.098 0 0099.9 82.902l-2.027-.666-.114-36.044c-.063-19.824-.14-36.071-.17-36.105-.03-.033-.383-.265-.786-.514-.704-.437-1.164-.454-12.05-.455h-11.32V5.623c0-4.082-.243-4.907-1.576-5.37-.592-.205-6.303-.268-22.864-.252-12.14.012-22.345.064-22.675.115zm42.61 11.176v6.757H28.834V4.536h40.094v6.757zm-35.59.115v2.29h4.505v-4.58H33.34v2.29zm26.806 0v2.29h4.28v-4.58h-4.28v2.29zm-35.59 6.087v3.797l.658.67.659.669h7.468l.003 1.775c.001.976.064 2.007.138 2.29l.136.516H10.37l-.736.668-.735.669v45.77c0 25.175.074 46.042.166 46.373.091.331.446.795.788 1.031.598.413 1.665.432 27.653.495l27.03.065.731 1.58c.865 1.867 2.381 4.191 3.93 6.019l1.114 1.318H4.506V13.699h20.048v3.796zM93.48 47.597v33.9h-4.505V55.28c0-19.837-.066-26.361-.27-26.816-.562-1.255-.544-1.253-12.896-1.253H64.423V22.63h3.787c3.533 0 3.82-.032 4.294-.48.81-.769.93-1.41.93-5.032v-3.42H93.48v33.898zM59.918 24.921v2.29h-10.9c-9.733 0-10.916-.038-11.038-.361-.075-.2-.136-1.23-.136-2.291v-1.928h22.074v2.29zm-24.32 8.145c4.258 7.567 14.793 9.947 21.984 4.966 1.676-1.161 3.605-3.226 4.599-4.922l.77-1.317h21.52v25.31c0 21.421-.048 25.31-.313 25.31-.677 0-3.97 1.262-6.047 2.32l-2.192 1.115H17.796v4.582h52.5l-1.46 1.823c-.802 1.004-1.57 2.034-1.705 2.29-.245.467-.321.468-24.79.468H17.796v4.58h23.332c18.58 0 23.309.06 23.215.287-.065.158-.39 1.137-.721 2.176l-.603 1.89H17.797v4.58h44.491l.033 2.691c.03 2.358.297 4.8.665 6.07.11.38-1.176.401-24.79.401H13.291V31.793h21.591l.716 1.273zm21.046-.114c-.719.745-1.796 1.502-3.016 2.119l-1.898.96h-2.832c-2.79 0-2.859-.014-4.522-.825-1.57-.766-4.055-2.73-4.055-3.205 0-.121 3.651-.208 8.72-.208h8.72l-1.117 1.159zM17.796 52.178v2.29h62.17v-4.58h-62.17v2.29zm0 8.933v2.29h62.17v-4.58h-62.17v2.29zm0 9.047v2.176h62.17v-4.352h-62.17v2.176zm0 9.048v2.29h62.17v-4.58h-62.17v2.29zm79.852 7.654c6.617 1.99 12.162 6.594 15.189 12.613 3.507 6.974 3.605 15.272.261 22.216-7.418 15.404-27.393 18.821-39.224 6.71-3.945-4.039-6.308-8.995-6.998-14.681-1.431-11.804 6.054-23.323 17.37-26.728 2.671-.804 3.477-.891 7.545-.813 3.36.064 4.078.148 5.857.683zm1.577 6.084c-.248.107-5.646 5.488-11.995 11.958l-11.544 11.763v8.615l.658.669.659.67h8.463l11.56-11.739c11.714-11.895 12.066-12.301 11.814-13.641-.13-.693-6.802-7.673-7.791-8.15-.848-.409-1.159-.434-1.824-.145zm4.167 8.816c0 .129-4.434 4.744-9.854 10.256l-9.854 10.022h-3.718v-3.32l10.077-10.248 10.076-10.249 1.637 1.653c.899.909 1.636 1.758 1.636 1.886z"/><defs><linearGradient id="la" x1="0" y1="0" x2="151.757" y2="61.023" gradientUnits="userSpaceOnUse"><stop stop-color="#208275"/><stop offset="1" stop-color="#2DD4BF"/></linearGradient></defs></svg><svg viewBox="0 0 140 140" id="useful-service-2" xmlns="http://www.w3.org/2000/svg"><path fill-rule="evenodd" clip-rule="evenodd" d="M35.959.402c-1.393.527-3.181 2.231-3.819 3.639l-.529 1.169-.11 31.588-.112 31.587-15.658 5.597L.072 79.578.016 103.75c-.045 19.222 0 24.193.222 24.275.153.056 7.788 2.774 16.967 6.039L33.893 140l6.596-2.355 6.596-2.356h34.702c38.964 0 35.835.14 37.878-1.694.634-.57 1.364-1.524 1.722-2.253l.622-1.265.062-26.652.061-26.653 6.38-.073c5.983-.07 6.444-.103 7.418-.553 1.468-.677 2.931-2.106 3.545-3.462.512-1.13.525-1.316.525-7.37v-6.21l-.592-1.108c-.709-1.33-1.933-2.536-3.295-3.248-.973-.509-1.169-.524-7.49-.59l-6.491-.068-.062-24.33c-.071-27.886.112-25.532-2.154-27.767-2.229-2.198 2.095-2-43.217-1.98C40.066.03 36.865.06 35.96.403zm80.354 4.348c.337.173.732.577.878.897.2.44.265 6.434.265 24.524v23.943h-4.442V17.963H40.607v25.964c0 25.539-.007 25.962-.428 25.829-.236-.075-1.21-.42-2.166-.769l-1.737-.632-.058-31.018c-.043-22.956.008-31.179.197-31.637.548-1.33-2.104-1.248 40.35-1.258 33.277-.007 39.025.037 39.548.308zM58.82 11.196v2.33h27.112l-.063-2.272-.063-2.274-13.493-.057-13.493-.057v2.33zm31.539.002v2.329H94.8V8.869h-4.44v2.33zm18.213 27.17v15.746H87.716l-8.533 3.183c-4.923 1.836-8.86 3.43-9.304 3.77-2.59 1.971-2.725 6.162-.269 8.32.842.74 2.132 1.295 8.882 3.82 7.296 2.728 7.886 2.988 7.749 3.408-.082.25-.2 1.12-.26 1.933-.149 1.96.333 3.386 1.628 4.825 1.376 1.528 2.82 2.18 5.253 2.368l1.948.15-.06 4.35c-.058 4.182-.077 4.35-.504 4.35-.334 0-1.441-1.486-4.463-5.988-4.73-7.05-5.017-7.32-7.753-7.32-1.382 0-1.732.088-2.677.672a5.747 5.747 0 00-1.76 1.756l-.672 1.085-.067 4.967c-.05 3.622-.137 4.945-.323 4.883-.14-.047-1.073-3.347-2.07-7.333-1-3.986-1.94-7.546-2.091-7.911-.37-.89-1.75-2.104-2.774-2.442-1.348-.444-3.082-.188-4.24.628-.548.386-1.055.701-1.127.701-.072 0-4.366-1.513-9.544-3.362l-9.414-3.362V22.62h63.301v15.747zM49.713 33.82v6.764h54.194V27.056H49.713v6.765zm49.752-.111v2.218h-45.31v-4.436h45.31v2.218zM49.713 47.35v2.33l18.047-.057 18.046-.056.063-2.274.063-2.273H49.713v2.33zm0 8.981v2.218h17.991v-4.436H49.713v2.218zm63.301 4.547v2.329H90.359V58.55h22.655v2.329zm9.054 4.491l.059 6.71h-4.671V58.534l2.277.063 2.276.063.059 6.71zm12.172-6.495c1.288.537 1.429 1.184 1.429 6.566 0 5.111-.151 5.89-1.243 6.386-.343.156-1.949.252-4.209.252h-3.655V58.55h3.45c2.527 0 3.658.087 4.228.325zm-48.323 6.44c0 4.377-.063 5.655-.278 5.654-.152-.001-1.177-.335-2.276-.743l-2-.741v-8.15l2.11-.826c1.161-.454 2.186-.83 2.277-.837.092-.007.167 2.532.167 5.643zm-9.197 2.27c-.13.13-3.155-.982-3.852-1.415-.541-.337-.68-1.272-.231-1.55.148-.09 1.122-.486 2.165-.878l1.897-.713.064 2.225c.035 1.224.016 2.273-.043 2.332zm36.294 2.276v2.218H90.359v-4.436h22.655v2.218zm-64.467 7.682l14.715 5.245v41.967l-12.716 4.533a13565.17 13565.17 0 01-14.715 5.238l-1.998.706-14.66-5.239-14.659-5.239-.056-20.976L4.4 82.802l14.605-5.23c8.032-2.876 14.654-5.24 14.715-5.252.062-.013 6.733 2.338 14.826 5.223zm45.605-.158c.595.594.65.78.65 2.218v1.57h-1.323c-1.589 0-2.38-.322-2.804-1.142-1.185-2.288 1.664-4.457 3.477-2.646zm14.366 12.825l-.057 13.474-20.38.057-20.381.056.057-11.257c.038-7.318.136-11.257.28-11.257.122 0 1.072 3.345 2.11 7.432 1.038 4.087 2.093 7.778 2.343 8.203.938 1.592 3.33 2.618 5.15 2.208 1.184-.267 2.508-1.297 3.096-2.407.493-.933.516-1.19.516-5.582 0-2.533.061-4.763.135-4.956.075-.193.359-.35.632-.35.404 0 1.219 1.08 4.326 5.741 2.105 3.158 4.094 5.998 4.42 6.31 1.989 1.901 5.804 1.583 7.491-.626 1.069-1.399 1.19-2.096 1.2-6.935l.01-4.49h4.44v-4.658H99.52l-.11-1.83c-.06-1.007-.183-2.005-.273-2.218-.154-.363.15-.388 4.636-.388h4.801l-.057 13.474zm8.933 12.864c-.004 24.62-.03 26.369-.389 26.811-.211.26-.602.584-.868.721-.351.178-8.258.243-28.43.232l-27.945-.015 1.333-.505c.733-.278 2.507-.931 3.942-1.451l2.61-.945v-1.504h8.984c9.918 0 10.806-.088 12.058-1.185 1.37-1.201 1.603-2.03 1.603-5.691 0-2.655-.071-3.373-.41-4.119-.521-1.144-1.8-2.204-3.037-2.515-.614-.154-4.244-.241-10.087-.241h-9.127l.063-2.163.064-2.162 22.6-.057 22.599-.056V76.737h4.442l-.005 26.337zM26.723 81.481c-4.415 1.07-7.957 5.029-8.558 9.561-.151 1.146-.211 7.12-.169 16.856.063 14.238.09 15.125.482 15.858.587 1.097 1.012 1.532 2.028 2.075.871.466 1.12.477 12.66.547 8.35.051 12.116-.003 12.955-.186 1.482-.322 2.98-1.661 3.346-2.99.166-.606.243-5.749.241-16.191-.003-16.646-.032-17.11-1.254-19.624-1.314-2.704-4.752-5.334-7.803-5.97-1.63-.339-12.472-.29-13.928.064zM41.1 86.354c1.36.607 2.657 1.8 3.275 3.01.455.89.892 3.092.894 4.506l.002.832H22.616v-1.735c0-2.438.462-3.638 1.984-5.16 1.883-1.883 2.15-1.939 9.282-1.96 5.895-.016 6.075-.004 7.218.507zm4.171 24.206v11.2H22.616v-22.4h22.655v11.2zm-18.213-4.547v2.218H31.5v9.093h4.665v-9.093h4.442v-4.436H27.058v2.218zm58.859 13.529v2.218H67.704v-4.436h18.213v2.218z"/><defs><linearGradient id="ma" x1="0" y1="0" x2="168.577" y2="79.085" gradientUnits="userSpaceOnUse"><stop stop-color="#208275"/><stop offset="1" stop-color="#2DD4BF"/></linearGradient></defs></svg><svg viewBox="0 0 140 140" id="useful-service-3" xmlns="http://www.w3.org/2000/svg"><path fill-rule="evenodd" clip-rule="evenodd" d="M55.06.136c-16.406 1.122-30.816 12.04-36.058 27.32-2.142 6.244-2.401 8.96-2.286 23.889.085 10.966.114 11.611.573 12.968.266.786.817 1.942 1.225 2.57 1.517 2.335 4.697 4.578 7.023 4.954 1 .161.93.042 2.005 3.393.883 2.752 2.728 6.333 4.552 8.835 1.715 2.353 5.5 5.956 7.916 7.534l1.883 1.23v2.293l-6.655 1c-7.719 1.159-9.643 1.647-13.164 3.34-5.616 2.7-10.179 7.195-13.031 12.835-.585 1.157-2.36 6.383-4.976 14.652C1.83 134.019 0 139.857 0 139.924c0 .066 29.45.095 65.443.063l65.442-.058.066-2.222.067-2.223-3.423-.064-3.422-.063-.066-2.211-.066-2.211 5.505-.076c5.448-.075 5.517-.082 6.677-.686 1.391-.724 2.761-2.153 3.372-3.518.426-.951.439-1.771.379-23.119-.059-21.061-.083-22.171-.492-22.933-.744-1.385-2.464-2.94-3.797-3.432-1.197-.443-1.844-.455-24.57-.455h-23.34l.57-1.886c.872-2.886.85-2.85 1.92-3.029 1.76-.293 4.012-1.607 5.562-3.243 1.677-1.771 2.63-3.609 3.002-5.785.188-1.099.237-5.83.17-16.153-.09-13.938-.118-14.695-.593-16.736-1.654-7.105-5.693-12.88-11.75-16.8-1.642-1.062-2.647-1.913-3.53-2.989-1.574-1.916-4.092-4.22-5.909-5.407C75.47 3.545 72.1 1.91 70.245 1.303 66.922.216 60.785-.255 55.06.136zm11.598 4.911c5.177 1.113 9.714 3.979 13.36 8.44 1.104 1.35 1.858 2.03 2.811 2.536 4.135 2.19 7.977 6.39 9.782 10.691 1.603 3.82 1.657 4.289 1.761 15.22.052 5.452.009 9.875-.097 9.83a52.103 52.103 0 01-1.348-.686c-.636-.33-1.6-.732-2.14-.892l-.984-.29v-9.301H88c-4.296 0-7.061-1.547-9.746-5.452-.56-.815-1.134-1.405-1.363-1.402-3.594.046-10.726.573-13.705 1.013-11.895 1.759-22.136 5.78-32.69 12.836-2.605 1.742-3.418 2.169-4.504 2.367-1.087.199-2.257.662-4.525 1.791-.261.13-.205-12.788.066-15.154 1.846-16.139 14.76-29.32 31.006-31.648 2.83-.406 3.386-.43 7.985-.349 2.93.052 4.977.202 6.134.45zm8.927 34.2c1.665 2.372 5.013 4.605 8.102 5.402l1.602.414.068 1.252.068 1.253H76.33c-8.89 0-9.115.01-10.02.495-1.099.588-2.692 2.18-3.22 3.216-.206.406-.44 1.203-.52 1.771l-.142 1.033h-9.136l-.148-1.086c-.183-1.345-1.274-3.269-2.287-4.032-1.795-1.352-2.486-1.501-6.987-1.507-2.559-.003-4.07-.086-3.934-.217.436-.421 5.599-2.841 8.089-3.792 8.471-3.235 16.64-4.857 25.717-5.108 1.139-.031 1.209.003 1.842.906zM48.021 52.572c.72.711.876 1.627.779 4.595-.08 2.428-.084 2.445-.836 3.108l-.756.667H31.904l-.676-.669-.677-.668v-6.243l.677-.668.676-.668h15.564l.553.546zm36.566-.004c.692.685.902 2.001.776 4.866-.095 2.132-.119 2.214-.841 2.851l-.744.657H68.474l-.677-.669-.676-.668v-3.148c0-3.106.008-3.158.622-3.79l.621-.641h15.674l.549.542zm-58.665 8.38v6.407l-.72-.368c-4.155-2.123-5.081-7.698-1.788-10.766.631-.589 2.218-1.676 2.45-1.68.032 0 .058 2.883.058 6.407zm65.154-5.756c1.056.64 2.143 1.837 2.72 2.994.709 1.42.72 4.024.026 5.5-.573 1.214-1.937 2.612-3.151 3.227l-.868.44V61.06c0-6.823-.035-6.662 1.273-5.869zM62.57 59.683c.308 2.22 1.871 4.228 4.075 5.235.995.455 1.488.485 8.979.55 4.907.042 8.252-.02 8.782-.165.47-.129.887-.203.925-.166.038.038-.035 1.153-.162 2.48-.254 2.647-.845 5.193-1.748 7.535l-.586 1.521-3.171.085c-2.731.073-3.306.155-4.148.595-1.526.796-2.535 1.796-3.237 3.208-.608 1.224-.651 1.508-.728 4.878l-.081 3.578-2.002.914c-2.32 1.06-4.4 1.694-7.325 2.232-2.47.454-7.357.352-9.956-.208-6.731-1.45-12.885-5.52-16.845-11.142-2.838-4.03-4.792-9.849-4.792-14.272v-1.429l1.01.213c.554.117 4.486.181 8.736.144 7.502-.067 7.763-.085 8.886-.595 2.019-.918 3.625-2.85 3.935-4.732.084-.503.192-1.043.242-1.2.068-.217 1.19-.286 4.58-.286h4.489l.142 1.027zM46.6 77.746c.297 2.135 1.757 4.08 3.813 5.077l1.315.638h6.134c5.748 0 6.2-.03 7.186-.482 2.238-1.022 3.83-3.01 4.08-5.096l.14-1.167H67.04c-2.158 0-2.23.017-2.366.55-.077.303-.4.791-.717 1.086-.573.532-.624.536-6.134.536h-5.556l-.559-.641c-.307-.353-.559-.841-.559-1.086 0-.411-.176-.445-2.346-.445h-2.346l.143 1.03zm88.042 3.985c.285.234.623.7.752 1.036.151.392.235 6.684.235 17.626v17.018h-59.49l.062-17.51.062-17.509.65-.551.649-.552 28.282.007c27.26.008 28.3.023 28.799.435zM49.186 95.799c1.02.293 2.942.712 4.271.931 4.06.67 10.238.127 14.22-1.251.752-.26 1.403-.473 1.447-.473.044 0 .079.489.078 1.086-.006 2.79-3.6 6.24-7.565 7.26-1.763.454-5.733.444-7.56-.019-3.94-.997-7.555-4.536-7.555-7.395 0-.84.057-.959.404-.826.223.085 1.24.394 2.26.687zm-1.242 19.539c2.904 8.606 5.253 15.673 5.22 15.706-.066.065-12.102-9.102-12.62-9.611-.254-.249.095-1.092 2.04-4.93 1.289-2.546 2.313-4.657 2.273-4.693-.04-.035-2.12-1.078-4.622-2.318l-4.551-2.255 1.39-3.429c.763-1.886 1.43-3.472 1.483-3.524.127-.128 3.366-.66 3.779-.622.221.02 2.048 5.128 5.608 15.676zm-16.018-11.044c-.655 1.619-1.387 3.432-1.627 4.031l-.437 1.088 4.49 2.214 4.49 2.214-2.202 4.343c-1.995 3.938-2.164 4.37-1.81 4.625.216.156 3.981 3.042 8.368 6.415l7.977 6.133-11.274.06c-6.2.032-11.3.032-11.333 0-.033-.033.38-3.526.917-7.762 1.125-8.867 1.35-7.817-1.743-8.089l-1.769-.156-.141.886c-.078.488-.509 3.87-.959 7.517-.449 3.646-.867 6.861-.93 7.144l-.112.514H15.04c-4.835 0-8.79-.061-8.79-.136 0-.075 1.366-4.473 3.038-9.774 3.223-10.222 4.073-12.284 6.206-15.055 2.928-3.804 6.764-6.576 11.239-8.124 1.795-.621 6.21-1.458 6.316-1.197.038.091-.468 1.49-1.123 3.109zM71.51 114.61l-.009 9.773-4.185 3.201c-2.302 1.76-4.32 3.278-4.486 3.373-.165.095 1.696-5.744 4.135-12.974 2.44-7.231 4.462-13.146 4.494-13.146.032 0 .055 4.397.05 9.773zm-17.987-6.807c.595.008.52.247-.727 2.296l-1.132 1.86-.836-2.476c-.459-1.361-.835-2.534-.835-2.607 0-.072.703.106 1.563.395.859.289 1.744.528 1.967.532zm11.559 1.377c-.463 1.383-.899 2.515-.968 2.515-.154 0-2.02-2.966-2.126-3.379-.047-.185.61-.532 1.776-.939a71.375 71.375 0 012.005-.679c.085-.018-.225 1.099-.688 2.482zm15.694 1.364v2.294h4.646l-.066-2.229-.067-2.229-2.256-.065-2.257-.066v2.295zm9.027.008v2.286h22.913v-4.572H89.803v2.286zm-29.663 3.595l2.087 3.481-2.155 6.35c-1.202 3.539-2.22 6.198-2.299 6.007-.429-1.031-4.077-12.042-4.077-12.307 0-.173.85-1.718 1.888-3.434 1.937-3.202 2.299-3.749 2.407-3.64.034.034 1.001 1.629 2.15 3.543zm75.446 9.352c-.088 1.36-.174 1.584-.841 2.172l-.743.656h-27.991c-21.208 0-28.137-.066-28.597-.274-.845-.38-1.267-1.313-1.267-2.801v-1.269h59.537l-.098 1.516zm-61.57 5.691c.345.317 1.095.806 1.668 1.086.971.474 1.406.514 6.423.581l5.381.072v4.542h-11.39c-10.848 0-11.372-.019-10.988-.4.377-.373 8.063-6.402 8.212-6.441.037-.009.35.242.694.56zm45.594 3.938l-.066 2.229-13.713.059-13.714.059v-4.576h27.559l-.066 2.229z"/><defs><linearGradient id="na" x1="0" y1="0" x2="168.577" y2="79.085" gradientUnits="userSpaceOnUse"><stop stop-color="#208275"/><stop offset="1" stop-color="#2DD4BF"/></linearGradient></defs></svg><svg viewBox="0 0 140 140" id="useful-service-4" xmlns="http://www.w3.org/2000/svg"><path fill-rule="evenodd" clip-rule="evenodd" d="M80.75.714c-2.089 1.072-2.977 2.433-3.84 5.885-.219.874-.32.966-1.462 1.336-.674.218-2.378.997-3.786 1.73l-2.56 1.333-1.774-.878c-1.576-.781-1.964-.879-3.484-.879-2.397 0-3.53.62-5.842 3.197-2.589 2.887-3.043 3.824-3.04 6.275.002 2.108.14 2.521 1.588 4.736l.755 1.155-.821 2.26c-.701 1.928-.906 2.277-1.398 2.387-2.857.64-4.281 1.44-5.432 3.046-1.049 1.465-1.331 2.729-1.331 5.966 0 3.488.434 4.934 1.945 6.486 1.08 1.109 2.25 1.711 4.184 2.156l1.26.29.673 1.975.673 1.976-.95 1.4c-1.189 1.752-1.448 2.377-1.624 3.91-.28 2.45 1.107 5.117 4.363 8.39 2.1 2.11 4.908 2.443 7.98.945l1.635-.797 2.248 1.228c1.236.675 3.007 1.506 3.935 1.847.928.341 1.764.688 1.858.77.095.083.378.916.631 1.852.543 2.013 1.32 3.284 2.64 4.318 1.397 1.094 2.849 1.46 5.782 1.46 2.857 0 4.306-.348 5.67-1.363 1.282-.953 1.88-1.914 2.654-4.262l.675-2.048 2.08-.762c1.144-.42 2.831-1.186 3.748-1.703l1.668-.94 1.764.855c1.538.746 1.98.856 3.451.861 2.492.009 3.731-.686 6.086-3.412 2.306-2.67 2.73-3.507 2.866-5.652.125-1.96-.169-2.931-1.51-5l-.884-1.363.462-1.178a45.41 45.41 0 00.805-2.247c.333-1.041.374-1.075 1.602-1.344 2.845-.625 5.002-2.343 5.742-4.572.414-1.246.496-6.577.122-7.957-.64-2.367-2.767-4.243-5.549-4.895-.802-.188-1.491-.376-1.532-.418-.041-.043-.375-.922-.742-1.954l-.667-1.876.992-1.464c2.003-2.955 2.162-5.843.465-8.408-1.344-2.03-3.84-4.573-5.049-5.14-1.888-.889-3.853-.8-6.081.273l-1.74.838-2.812-1.481c-1.547-.815-3.383-1.666-4.08-1.891l-1.269-.41-.483-1.88c-.651-2.53-1.665-3.92-3.596-4.925C88.978 0 88.967 0 85.558 0c-3.367 0-3.436.01-4.807.714zm7.135 8.354c.556 2.486 1.04 3.554 1.837 4.055.263.166 1.356.562 2.43.882 2.436.725 5.027 1.968 7.325 3.515 2.374 1.598 2.959 1.6 6.022.021 1.251-.645 2.344-1.086 2.429-.982.085.105.587.736 1.117 1.403l.963 1.214-1.12 1.559c-2.448 3.408-2.527 3.865-1.191 6.93.485 1.112 1.107 2.802 1.382 3.755.951 3.29 1.138 3.467 4.656 4.372l2.418.622.064 1.854.065 1.853-2.314.533c-3.7.85-4.113 1.204-5.007 4.28a39.393 39.393 0 01-1.514 4.124c-1.277 2.872-1.193 3.555.784 6.407l1.486 2.142-1.135 1.345c-.625.74-1.209 1.346-1.299 1.346-.09 0-1.017-.482-2.059-1.07-1.418-.802-2.206-1.097-3.132-1.175-1.155-.098-1.336-.04-2.7.876-2.08 1.397-5.201 2.862-7.398 3.474-2.774.773-3.168 1.234-3.978 4.66l-.644 2.724-1.794-.067-1.795-.066-.615-2.52c-.338-1.387-.81-2.79-1.049-3.12-.45-.62-1.319-1.027-3.987-1.867-1.903-.598-4.727-2.02-6.263-3.154-1.306-.963-2.385-1.468-3.142-1.468-.294 0-1.569.52-2.834 1.155-1.265.636-2.38 1.156-2.478 1.156-.098 0-.646-.612-1.218-1.36l-1.04-1.36.744-1.008c2.829-3.83 2.93-4.35 1.484-7.646-.501-1.143-1.126-2.902-1.389-3.909-.68-2.611-1.323-3.165-4.516-3.893l-2.408-.549V36.29l.844-.228c.464-.126 1.547-.407 2.408-.627 2.269-.577 2.923-1.274 3.634-3.871.31-1.129 1.02-3.052 1.58-4.274 1.386-3.025 1.33-3.658-.557-6.368-.762-1.093-1.38-2.116-1.375-2.271.005-.156.497-.842 1.093-1.525l1.083-1.241 2.45 1.319c3.068 1.65 3.526 1.644 6.16-.09 2.22-1.463 4.248-2.416 6.69-3.144 2.212-.659 2.835-1.044 3.295-2.04.274-.594 1.267-4.598 1.267-5.111 0-.065.835-.118 1.856-.118l1.856.001.53 2.367zM83.23 24.04c-2.409.441-5.512 2.049-7.259 3.76-1.81 1.772-3.274 4.324-3.896 6.79-.45 1.782-.457 5.324-.014 7.12 1.52 6.166 7.23 10.733 13.42 10.733 2.42 0 3.795-.338 6.202-1.524 9.722-4.79 10.547-18.537 1.483-24.715-2.69-1.834-6.826-2.735-9.936-2.164zm5.469 7.376c1.397.694 2.634 1.964 3.428 3.519.538 1.053.623 1.49.626 3.184.003 1.687-.085 2.15-.627 3.281-1.745 3.65-6.156 5.285-9.638 3.572-1.482-.73-2.96-2.28-3.633-3.809-.676-1.537-.679-4.363-.005-5.865.932-2.08 2.078-3.212 4.224-4.168 1.323-.59 4.152-.447 5.625.286zM40.48 79.713c-7.969.786-17.476 4.962-24.864 10.921-.728.587-4.188 2.582-7.69 4.434-6.724 3.556-7.585 4.185-7.87 5.75-.08.436-.073 1.036.015 1.333.088.297 4.173 8.272 9.077 17.722 9.853 18.988 9.506 18.438 11.568 18.346 1.014-.046 1.694-.419 7.68-4.21 3.612-2.288 6.938-4.319 7.39-4.513 1.66-.711 2.428-.517 6.8 1.719 10.868 5.558 20.875 8.78 27.289 8.785 1.974.002 6.918-.558 10.17-1.151 19.005-3.465 39.832-14.922 55.406-30.479 2.435-2.432 3.005-3.14 3.713-4.611.825-1.716.836-1.772.836-4.534 0-2.782-.004-2.805-.874-4.612-2.592-5.384-8.804-8.064-14.223-6.136-2.372.845-18.701 10.576-24.974 14.884-1.21.831-2.227 1.483-2.26 1.449-.033-.034.095-.576.285-1.206.94-3.119-.724-6.507-4.041-8.23-2.04-1.06-4.318-1.543-9.676-2.053-7.53-.715-12.054-1.609-15.42-3.045-1.325-.566-2.06-1.094-3.599-2.59-1.064-1.033-2.42-2.221-3.015-2.64-1.446-1.018-5.702-3.081-7.865-3.812-4.017-1.358-9.46-1.955-13.858-1.521zm9.08 7.237c2.699.603 4.644 1.306 6.928 2.507 1.788.94 2.66 1.601 4.623 3.507 2.597 2.52 4.17 3.493 7.46 4.616 3.34 1.139 9.973 2.26 15.185 2.566 1.362.081 3.172.247 4.024.37 1.69.245 3.738 1.04 3.738 1.451 0 .142-.747.999-1.66 1.904-2.61 2.586-6.588 4.396-12.233 5.566-2.986.62-9.044.564-12.338-.112-1.373-.282-3.084-.72-3.804-.974-3.56-1.258-5.666.092-5.536 3.55.036.957 1.424 2.274 3.062 2.908 5.707 2.206 18.962 2.468 28.91.571 4.545-.867 9.833-2.689 12.548-4.325.708-.426 4.527-2.856 8.487-5.4 6.643-4.268 15.957-9.824 17.778-10.605 1.871-.803 4.601-.019 5.867 1.685.85 1.145.993 2.857.347 4.156-.497 1.002-3.815 4.285-7.682 7.602-4.717 4.045-11.11 8.669-16.086 11.631-2.668 1.589-10.428 5.484-13.305 6.678-10.07 4.179-22.133 6.763-28.202 6.04-5.69-.678-12.991-3.318-22.047-7.972-4.847-2.491-6.378-2.991-8.662-2.824l-1.575.115-7.03-13.469c-3.867-7.407-7.031-13.555-7.03-13.662 0-.399 4.044-2.948 7.086-4.466 4.314-2.154 7.793-3.264 12.598-4.017 1.331-.21 7.005.059 8.55.403zm-27.19 25.242c3.772 7.099 6.878 12.992 6.9 13.095.063.281-7.127 4.787-7.32 4.589-.175-.18-13.89-26.595-13.966-26.898-.069-.272 7.132-4.07 7.34-3.872.103.098 3.273 5.986 7.046 13.086z"/><defs><linearGradient id="oa" x1="0" y1="0" x2="168.577" y2="79.085" gradientUnits="userSpaceOnUse"><stop stop-color="#208275"/><stop offset="1" stop-color="#2DD4BF"/></linearGradient></defs></svg><svg viewBox="0 0 120 140" id="useful-service-5" xmlns="http://www.w3.org/2000/svg"><path fill-rule="evenodd" clip-rule="evenodd" d="M10.725.177C9.207.593 9.25.2 9.25 13.327v11.891H7.11c-1.176 0-2.552.127-3.058.281-1.164.356-2.864 1.872-3.536 3.152L0 29.637v105.824l.518.988c.7 1.336 1.837 2.451 3.11 3.052 1.053.498 1.136.499 30.447.499 24.38 0 29.55-.056 30.328-.33 1.427-.502 2.911-1.857 3.54-3.234l.553-1.214.003-27.889.002-27.89h23.143c26.242 0 24.533.125 26.542-1.925 1.918-1.956 1.862-1.322 1.786-20.199-.062-15.438-.093-16.517-.502-17.471-.546-1.274-2.383-2.983-3.607-3.357-.691-.212-6.882-.284-24.124-.284H68.545l-.08-3.404c-.076-3.193-.12-3.472-.714-4.502-.708-1.23-1.951-2.296-3.21-2.755-.462-.169-1.816-.312-3.007-.317l-2.166-.01-.004-11.646c-.003-8.774-.075-11.79-.293-12.23-.16-.321-.624-.783-1.032-1.026-.667-.397-.823-.408-1.532-.106-.435.185-1.753 1.055-2.93 1.933l-2.14 1.596-2.417-1.762c-1.329-.97-2.6-1.832-2.828-1.916-.632-.233-1.476.193-3.955 1.998l-2.279 1.66-2.488-1.832C35.7.586 34.78.056 34.286.056c-.667 0-1.443.472-4.573 2.78l-1.2.885-2.295-1.695c-2.681-1.98-3.159-2.205-4-1.879-.483.188-3.05 1.95-4.904 3.367-.148.114-1.184-.493-2.538-1.488C12.115.073 11.735-.1 10.725.176zM25.24 6.705c3.083 2.27 3.406 2.3 5.824.534.948-.692 2.053-1.497 2.458-1.79l.735-.53 2.427 1.788c2.82 2.078 3.508 2.232 5.026 1.121.502-.367 1.605-1.17 2.452-1.782l1.54-1.114 2.437 1.782c2.988 2.185 3.476 2.258 5.453.814l1.326-.969v27.737H13.466v-13.87c0-11.027.06-13.834.293-13.697.16.094.78.53 1.378.97 1.69 1.242 2.262 1.133 5.15-.98 1.336-.978 2.45-1.784 2.474-1.792.025-.007 1.14.793 2.479 1.778zm-3.343 6.742c-1.323.244-2.13 1.726-1.62 2.98.568 1.4.42 1.386 14.155 1.386h12.56l.684-.698c1.244-1.27.78-3.114-.903-3.591-.853-.242-23.6-.312-24.876-.077zm-.632 10.102c-.71.291-1.318 1.563-1.126 2.352.084.347.375.873.645 1.169l.492.537h25.936l.574-.632c.818-.9.774-2.068-.11-2.97l-.685-.698-12.605.015c-6.934.009-12.838.11-13.121.227zM9.251 31.877v2.358l-1.19.117c-1.55.151-2.196.776-2.196 2.12 0 .775.136 1.1.652 1.552l.652.571h54.242l.618-.63c1.401-1.429.337-3.67-1.743-3.67h-.919v-4.776h1.885c1.71 0 1.94.057 2.484.613l.601.612-.145 52.001-.145 52.001-.492.418c-.463.393-2.212.418-29.39.418-28.584 0-28.9-.006-29.364-.478-.466-.475-.468-.796-.468-52.517 0-49.262.021-52.058.41-52.403.615-.547.958-.626 2.81-.646l1.698-.019v2.358zm105.78 9.149c.502.48.542.711.542 3.105v2.586H68.501v-6.21h45.988l.542.519zM12.346 43.105c-1.443.512-2.198 1.168-3.06 2.657l-.62 1.075V71.68l.638 1.11c.82 1.422 1.753 2.213 3.176 2.696 1.017.344 3.345.378 22.197.32l21.06-.065.96-.523c.527-.288 1.304-.925 1.727-1.416 1.58-1.837 1.529-1.344 1.529-14.543 0-13.2.052-12.707-1.53-14.544-.422-.49-1.2-1.128-1.727-1.416l-.959-.523-21.077-.055c-19.935-.052-21.144-.032-22.314.384zm42.906 4.465c.325.331.368 1.723.368 11.689 0 9.965-.043 11.357-.367 11.688-.33.335-2.562.375-21.065.375H13.492l-.364-.531c-.317-.462-.365-1.962-.365-11.532 0-9.571.048-11.071.365-11.533l.364-.53h20.696c18.503 0 20.735.039 21.064.374zm60.321 7.15v3.464H68.501v-6.928h47.072v3.464zm0 13.537c0 5.038-.049 5.83-.387 6.211-.371.418-1.408.437-23.536.437H68.5V62.483h47.073v5.774zM12.617 81.042c-.274.055-.748.371-1.054.703-.54.586-.558.736-.631 5.302-.048 2.976.02 5.027.184 5.594.431 1.483.936 1.613 6.22 1.613h4.597l.684-.698.685-.698v-5.17c0-3.247-.094-5.35-.253-5.652-.502-.957-1.568-1.16-5.887-1.126-2.226.018-4.271.077-4.545.132zm17.096 0c-.274.055-.748.371-1.054.703-.54.586-.558.736-.631 5.302-.048 2.976.02 5.027.184 5.594.431 1.483.936 1.613 6.22 1.613h4.597l.684-.698.685-.698v-5.17c0-3.247-.094-5.35-.253-5.652-.502-.957-1.568-1.16-5.887-1.126-2.226.018-4.272.077-4.545.132zm16.133.093c-1.377.422-1.502 1.017-1.421 6.796.095 6.778-.476 6.204 6.16 6.204 6.631 0 6.066.563 6.161-6.134.047-3.257-.018-5.27-.182-5.674-.495-1.218-.94-1.326-5.627-1.378-2.383-.026-4.674.058-5.091.186zm-26.81 6.49l-.067 2.21-1.815.07-1.815.07v-4.56h3.765l-.067 2.21zm17.097 0l-.068 2.21-1.814.07-1.816.07v-4.56H36.2l-.067 2.21zm16.209.06v2.27h-3.513v-4.54h3.513v2.27zM11.664 99.608l-.657.576-.072 4.955c-.05 3.455.012 5.163.208 5.644.537 1.323.819 1.387 6.023 1.387h4.767l.684-.698.685-.698v-5.051c0-5.11-.09-5.737-.916-6.385-.264-.206-1.778-.293-5.218-.298-4.79-.008-4.855-.001-5.504.568zm17.096 0l-.657.576-.072 4.955c-.05 3.455.012 5.163.207 5.644.538 1.323.82 1.387 6.024 1.387h4.767l.684-.698.685-.698v-5.051c0-5.11-.09-5.737-.916-6.385-.264-.206-1.778-.293-5.218-.298-4.79-.008-4.855-.001-5.504.568zm16.304.122l-.685.699v10.345l.685.698.684.698h4.806c4.742 0 4.815-.007 5.463-.576l.657-.576.072-5.282.07-5.281-.697-.712-.697-.71h-9.674l-.684.697zm-25.977 5.871v2.27h-3.748v-4.539h3.748v2.269zm17.095 0v2.27h-3.746v-4.539h3.746v2.269zm16.16 0v2.27h-3.513v-4.539h3.513v2.269zm-40.627 11.918c-.78.794-.865 1.538-.781 6.77l.073 4.593.649.662.649.662 3.898.081c4.66.097 5.795-.043 6.543-.806.552-.563.556-.608.556-5.852v-5.284l-.684-.699-.685-.698h-4.83c-4.779 0-4.835.006-5.389.571zm17.095 0c-.778.794-.864 1.538-.78 6.77l.073 4.593.649.662.649.662 4.126.08c4.728.091 5.537-.011 6.312-.802.556-.567.559-.602.559-5.855v-5.284l-.685-.699-.684-.698h-4.83c-4.779 0-4.835.006-5.389.571zm16.344.005l-.658.576-.07 5.259-.072 5.258.696.794.696.795h9.679l.696-.795.695-.794-.07-5.258-.072-5.259-.657-.576c-.648-.568-.723-.576-5.432-.576-4.708 0-4.784.008-5.431.576zm-26.067 5.993v2.27h-3.748v-4.539h3.748v2.269zm17.095 0v2.27h-3.746v-4.539h3.746v2.269zm16.16 0v2.27h-3.513v-4.539h3.513v2.269z"/><defs><linearGradient id="pa" x1="0" y1="0" x2="151.757" y2="61.023" gradientUnits="userSpaceOnUse"><stop stop-color="#208275"/><stop offset="1" stop-color="#2DD4BF"/></linearGradient></defs></svg><svg viewBox="0 0 140 140" id="useful-service-6" xmlns="http://www.w3.org/2000/svg"><path fill-rule="evenodd" clip-rule="evenodd" d="M66.085.242c-6.82 1.097-13.02 4.91-16.995 10.451l-1.106 1.542-18.907.005c-11.226.002-19.623.105-20.67.25-3.428.48-6.056 2.356-7.51 5.362l-.803 1.659L.02 67.483c-.055 35.131.002 48.367.212 49.444.383 1.964 1.198 3.461 2.664 4.888 1.543 1.502 3.387 2.383 5.56 2.657.943.119 20.9.22 44.35.225l42.637.008v6.437c0 5.447.064 6.568.412 7.287.51 1.052 1.485 1.568 2.966 1.568 1.251 0 .91.242 7.675-5.426 1.701-1.425 3.188-2.59 3.306-2.59.118 0 1.606 1.165 3.306 2.59 6.853 5.74 6.402 5.426 7.793 5.426 1.075 0 1.386-.12 2.193-.844l.941-.844.075-6.802.074-6.802 2.823-.008c5.581-.016 7.801-.649 10.124-2.887.696-.67 1.554-1.863 1.997-2.778l.778-1.603.074-47.973c.055-35.13-.002-48.366-.212-49.444-.796-4.081-3.988-7.01-8.224-7.545-.943-.119-10.229-.22-20.635-.224l-18.921-.008-.932-1.374C87.794 6.05 82.07 2.133 76.09.615c-2.5-.634-7.275-.812-10.005-.373zm6.686 6.09c8.986 1.426 15.58 8.461 16.284 17.376.29 3.684-.753 7.586-3.034 11.34-3.94 6.487-5.902 12.198-6.355 18.502l-.168 2.34H60.503l-.156-2.328c-.407-6.063-2.696-12.72-6.428-18.694-1.163-1.862-2.144-4.226-2.586-6.232-.454-2.063-.38-6.296.146-8.262 1.827-6.838 7.47-12.25 14.239-13.655 3.308-.687 4.688-.762 7.053-.387zm-27.546 12.87c-.872 3.418-.803 8.016.177 11.778.746 2.862 1.338 4.18 3.647 8.11 3.309 5.637 5.073 11.467 5.083 16.794.004 2.423 1.644 4.897 3.84 5.794l.944.386.003 3.14c.002 1.87.143 3.657.348 4.413.818 3.009 3.034 5.667 5.857 7.028l1.601.772v30.064l-.945-.728c-1.743-1.345-3.453-2.237-5.86-3.06l-2.39-.816-25.635-.069-25.636-.068.066-40.998c.054-33.315.129-41.105.398-41.566.182-.313.692-.784 1.134-1.048.775-.462 1.427-.479 19.156-.48h18.354l-.142.554zm86.95-.055c.458.274.981.856 1.162 1.294.267.648.305 8.412.203 41.548l-.126 40.751-25.472.068-25.472.069-1.764.583c-2.327.77-4.483 1.839-6.109 3.028l-1.322.968v-30.04l1.623-.782c2.76-1.33 4.82-3.676 5.727-6.521.348-1.092.46-2.239.46-4.737V62.08l1.07-.466c1.267-.553 2.516-1.747 3.118-2.983.273-.562.511-1.938.645-3.727.41-5.502 1.888-10.451 4.384-14.675 3.294-5.573 4.107-7.48 4.771-11.193.552-3.083.42-7.673-.286-9.957-.126-.408.857-.432 18.21-.43 17.955 0 18.362.01 19.178.498zM18.105 34.364c-2.391.88-2.914 3.763-.97 5.363l.757.625h18.402l.837-.819c1.095-1.072 1.34-2.291.713-3.548-.88-1.764-1.1-1.8-10.795-1.779-4.711.01-8.735.082-8.943.158zm85.452.233c-1.944.938-2.232 3.72-.53 5.123l.768.632h18.401l.842-.824c.463-.453.923-1.14 1.022-1.526.272-1.063-.377-2.59-1.384-3.253-.851-.56-.91-.563-9.573-.557-7.525.004-8.83.06-9.546.405zM17.958 50.075c-.944.403-1.776 1.392-1.996 2.375-.206.917.483 2.349 1.47 3.055.695.498.983.51 12.721.51 11.475 0 12.047-.022 12.825-.483 2.16-1.28 2.016-4.34-.256-5.395-.789-.367-2.156-.411-12.436-.403-9.097.008-11.715.08-12.328.341zm79.257.104c-1.92 1.008-2.239 3.33-.668 4.869.642.628 1.1.83 2.184.959.755.09 6.267.129 12.25.085 10.557-.076 10.898-.093 11.588-.591 1.117-.807 1.701-2.048 1.488-3.163-.188-.98-1.1-2.012-2.116-2.394-.321-.12-5.821-.22-12.222-.22-10.824 0-11.7.033-12.504.455zM74.786 65.025c0 1.898-.118 2.997-.39 3.634-.79 1.854-2.249 2.83-4.27 2.858-1.653.024-3.052-.685-4.03-2.042-.726-1.005-.76-1.17-.845-4.11l-.09-3.061h9.625v2.72zm-56.828.589c-.944.403-1.776 1.392-1.996 2.375-.206.916.483 2.349 1.47 3.054.7.502.95.51 16.007.51 16.993 0 16.148.082 17.06-1.647.513-.97.357-2.724-.307-3.454-1.078-1.184-1.148-1.19-16.774-1.179-11.718.008-14.84.077-15.46.34zm73.019.012c-1.645.706-2.318 2.923-1.356 4.467 1.003 1.612.7 1.583 16.724 1.583 7.963 0 14.839-.07 15.281-.157.441-.086 1.131-.48 1.533-.873a3.038 3.038 0 00-.325-4.662l-.814-.597-15.115-.055c-12.579-.046-15.251.003-15.928.294zM18.41 81.04c-2.898.686-3.36 4.543-.692 5.783.744.345 2.934.39 18.903.39 19.888 0 19.189.054 20.136-1.516.911-1.51.463-3.37-1.045-4.338-.63-.404-1.942-.438-18.575-.475-9.844-.022-18.27.048-18.727.156zm66.975-.063c-2.175.415-3.333 3.207-2.011 4.852 1.156 1.44.358 1.385 20.181 1.384 17.375 0 18.249-.022 18.989-.464.836-.5 1.618-1.843 1.616-2.779-.001-.778-.823-2.054-1.676-2.6-.651-.418-1.796-.448-18.59-.478-9.844-.017-18.173.02-18.509.085zm-29.24 28.195c1.988.304 4.797 1.603 6.338 2.931 1.416 1.22 2.832 3.209 3.488 4.899l.5 1.289H37.615c-31.492 0-29.727.081-30.735-1.405-.382-.563-.488-1.299-.57-3.954-.056-1.795-.036-3.432.045-3.638.13-.332 2.895-.375 24.15-.373 14.961.001 24.619.096 25.64.251zm39.298 4.433v4.686H73.53l.5-1.289c1.491-3.842 5.18-6.911 9.263-7.706 1.059-.207 3.662-.34 6.924-.354l5.227-.023v4.686zm22.36 5.981c.036 5.799-.001 10.544-.083 10.544s-1.302-.975-2.711-2.168c-3.835-3.245-3.856-3.258-5.207-3.258s-1.371.013-5.207 3.258c-1.408 1.193-2.627 2.168-2.708 2.168-.207 0-.182-20.847.026-21.05.094-.093 3.693-.139 7.998-.103l7.827.065.065 10.544zm15.931-7.33c0 5.592-.437 6.033-5.983 6.034l-3.59.001v-9.372h9.573v3.337z"/><defs><linearGradient id="qa" x1="0" y1="0" x2="168.577" y2="79.085" gradientUnits="userSpaceOnUse"><stop stop-color="#208275"/><stop offset="1" stop-color="#2DD4BF"/></linearGradient></defs></svg><svg viewBox="0 0 140 140" id="useful-service-7" xmlns="http://www.w3.org/2000/svg"><path fill-rule="evenodd" clip-rule="evenodd" d="M109.051.135c-10.727 1.58-19.286 9.91-21.271 20.701l-.415 2.256-28.878.074-28.88.073-1.947 1.017c-2.209 1.153-4.193 3.082-5.203 5.058-.385.753-4.698 15.908-10.168 35.73-5.224 18.93-9.845 35.278-10.268 36.327-1.78 4.418-2.415 10.052-1.782 15.796 1.24 11.257 8.705 19.953 19.17 22.333 2.088.474 4.666.5 50.352.5 38.18 0 48.527-.073 49.964-.352 9.014-1.753 16.068-8.07 18.916-16.94 1.964-6.113 1.783-14.615-.437-20.58-.593-1.593-14.405-51.013-14.77-52.849-.055-.276.637-.922 1.986-1.852 4.92-3.393 8.735-9.091 10.278-15.352.739-2.996.784-8.362.097-11.57C133.617 10.33 126.3 2.662 116.752.545c-2.311-.512-5.761-.696-7.701-.41zm7.073 7.38c3.412.907 5.604 2.246 8.277 5.055 3.323 3.493 4.687 6.442 5.283 11.421.662 5.53-1.27 11.168-5.279 15.404-2.05 2.166-4.197 3.542-7.269 4.659-1.825.664-2.455.754-5.307.757-2.957.003-3.431-.07-5.504-.84-4.993-1.857-8.265-4.894-10.657-9.889-1.62-3.383-2.168-8.7-1.3-12.62 1.44-6.514 6.779-12.187 13.12-13.942 2.554-.707 5.994-.71 8.636-.006zm-4.813 5.389c-1 .37-1.035.727-1.035 10.524 0 5.235-.089 9.518-.197 9.518-.109 0-2.001-1.907-4.204-4.238-4.222-4.466-4.826-4.857-5.785-3.738-.969 1.13-.668 1.59 4.814 7.348 7.329 7.699 6.736 7.699 14.109-.01 4.374-4.573 4.983-5.316 4.983-6.072 0-.487-.205-1.058-.473-1.314-1.032-.987-1.553-.643-5.74 3.786-2.203 2.331-4.095 4.238-4.203 4.238-.109 0-.198-4.353-.198-9.673 0-7.411-.075-9.738-.323-9.948-.461-.389-1.293-.59-1.748-.421zM87.753 30.608c0 .991 1.242 4.97 2.137 6.85 3.607 7.57 10.633 12.933 18.49 14.113 1.89.284 6.587.176 8.109-.186l.647-.154 5.149 18.68c2.832 10.275 5.208 18.848 5.28 19.05.102.29-.041.276-.652-.057-1.392-.76-4.082-1.747-6.178-2.266-1.953-.484-4.258-.507-50.974-.507H20.833l-2.462.72c-1.354.396-3.254 1.099-4.221 1.562-1.448.694-1.734.76-1.619.374.078-.257 3.52-12.712 7.649-27.676 4.129-14.964 7.706-27.681 7.95-28.26.48-1.145 1.696-2.27 2.847-2.634.401-.127 13.34-.242 28.753-.255l28.023-.023v.669zm32.461 63.035c3.534.955 6.689 3.065 9.138 6.111 1.195 1.487 1.762 2.593 2.97 5.792.785 2.077.832 2.411.937 6.628.127 5.137-.206 7.298-1.596 10.353-2.131 4.68-5.98 8.155-10.773 9.727l-1.942.636H20.833l-1.812-.653c-4.961-1.788-8.263-4.747-10.475-9.386-1.547-3.244-1.894-5.374-1.764-10.811.1-4.189.166-4.708.767-6.084.361-.827.856-2.085 1.1-2.795 1.35-3.938 6.296-8.182 11.075-9.505 1.822-.504 3.514-.522 50.19-.537 47.253-.014 48.348-.003 50.3.525zM30.032 103.66c-5.788 1.643-8.51 8.454-5.646 14.129.95 1.883 2.358 3.266 4.343 4.267 1.215.613 1.765.717 3.754.712 1.964-.006 2.553-.118 3.754-.718 2.011-1.006 3.393-2.379 4.405-4.382.753-1.488.89-2.055.978-4.054.084-1.89 0-2.613-.449-3.87-1.118-3.133-3.345-5.271-6.35-6.097-1.873-.516-2.936-.512-4.789.013zm54.673 1.629c-1.084.801-.593 2.639.801 3.002.31.08 6.939.111 14.729.068 12.793-.07 14.206-.122 14.594-.532.563-.594.548-1.75-.031-2.426-.447-.522-.871-.538-14.99-.538-12.73 0-14.6.053-15.103.426zm-49.547 2.2c4.645 2.446 4.27 9.635-.605 11.594-2.672 1.074-6.074-.316-7.366-3.008-2.647-5.518 2.752-11.333 7.97-8.586zm34.558 10.414c-1.189.25-1.59 1.819-.724 2.829.452.527.916.538 22.903.538 21.988 0 22.452-.011 22.903-.538.579-.675.594-1.832.031-2.426-.393-.415-2.303-.457-22.49-.488-12.133-.019-22.314.019-22.623.085z"/><defs><linearGradient id="ra" x1="0" y1="0" x2="168.577" y2="79.085" gradientUnits="userSpaceOnUse"><stop stop-color="#208275"/><stop offset="1" stop-color="#2DD4BF"/></linearGradient></defs></svg><svg viewBox="0 0 170 120" id="useful-service-8" xmlns="http://www.w3.org/2000/svg"><path fill-rule="evenodd" clip-rule="evenodd" d="M6.717.201C4.411.67 2.276 2.434.964 4.954L.358 6.12l-.07 47.969-.07 47.969.559 1.534c.662 1.82 2.363 3.684 4.214 4.62l1.283.649 31.398.074 31.397.073v5.515H62.87c-6.737 0-7.386.123-8.002 1.511-.512 1.154-.379 2.004.464 2.973l.784.902 28.462.073c20.993.054 28.657-.01 29.209-.245 2.138-.907 2.399-3.581.465-4.754-.649-.393-1.657-.46-6.969-.46h-6.212v-5.515l31.398-.073 31.397-.074 1.263-.639c1.611-.815 3.238-2.485 4.032-4.14l.622-1.297V6.12l-.617-1.186c-.951-1.829-2.375-3.28-4.046-4.123l-1.523-.767-77.855-.04C42.923-.02 7.362.07 6.718.2zm156.504 5.86c.523.36 1.052 1.04 1.235 1.587.243.725.325 11.181.336 43.007l.015 42.05H5.327l.07-42.513.07-42.513.564-.78c.31-.428.855-.933 1.21-1.12.509-.269 17.115-.342 77.857-.346l77.209-.004.914.631zm-81.996 9.324c-2.156.397-5.91 1.938-7.719 3.169-3.941 2.681-7.168 6.998-8.667 11.594-.662 2.03-.72 2.57-.72 6.628 0 4.06.058 4.6.72 6.629 2.99 9.17 10.896 15.052 20.231 15.052 7.406 0 13.614-3.428 17.722-9.786 2.327-3.602 3.39-7.375 3.387-12.014-.007-9.689-5.911-17.744-15.192-20.726-2.16-.693-7.376-.985-9.762-.546zm7.84 5.672c6.854 1.816 11.753 8.208 11.831 15.434.014 1.372-.134 3.179-.33 4.014-.593 2.524-2.112 5.377-3.935 7.392-1.93 2.132-3.814 3.386-6.63 4.415-1.67.61-2.426.72-4.93.72-2.506 0-3.261-.11-4.932-.72-2.811-1.027-4.7-2.283-6.616-4.4-3.004-3.32-4.278-6.681-4.272-11.274.01-7.223 4.652-13.473 11.516-15.502 2.097-.62 6.112-.658 8.298-.079zm-2.247 13.237c-2.588 1.59-4.817 2.891-4.953 2.893-.136.002-.867-.68-1.624-1.515-1.228-1.356-1.493-1.52-2.459-1.52-1.658 0-2.665 1.255-2.559 3.186.031.558 2.934 4.393 4.227 5.584 1.305 1.201 2.045.942 8.535-2.988 3.278-1.986 6.172-3.864 6.43-4.174.768-.92.62-2.602-.315-3.562-1.316-1.351-1.976-1.161-7.282 2.096zM60.867 67.001c-.998.424-1.602 1.386-1.602 2.554 0 .904.163 1.26.873 1.911l.872.8h48.12l.872-.8c1.177-1.08 1.233-2.695.133-3.826l-.74-.76-23.996-.053c-13.198-.03-24.238.049-24.533.174zm-.757 11.456c-1.003.955-1.185 1.989-.562 3.183.342.657.825 1.093 1.453 1.313 1.21.424 17.163.487 18.611.074 2.091-.597 2.779-2.921 1.31-4.43l-.785-.807H60.81l-.701.667zm104.696 20.807c-.003 1.819-.496 3.09-1.427 3.672-.844.529-2.073.538-78.402.538l-77.544.002-.772-.565c-.833-.61-1.324-1.958-1.326-3.647l-.002-1.036h159.474l-.001 1.036zM95.693 111.76v2.762H74.448v-5.524h21.244v2.762z"/><defs><linearGradient id="sa" x1=".217" y1="0" x2="173.28" y2="114.724" gradientUnits="userSpaceOnUse"><stop stop-color="#208275"/><stop offset="1" stop-color="#2DD4BF"/></linearGradient></defs></svg></svg>