<svg width="203" height="178" viewBox="0 0 203 178" fill="none" xmlns="http://www.w3.org/2000/svg">
<g clip-path="url(#clip0_26_160)">
<path d="M228.957 -13.9161C228.778 -15.4627 228.033 -16.8779 226.876 -17.8672C225.719 -18.8565 224.24 -19.3438 222.747 -19.2277C221.254 -19.1116 219.861 -18.401 218.858 -17.2438C217.856 -16.0866 217.321 -14.5719 217.364 -13.0147C219.348 15.1949 197.254 29.6905 181.534 36.3711L178.284 27.0334C177.189 23.9004 173.787 20.6009 170.713 19.7025L141.062 11.5823C137.415 10.6875 133.603 10.8346 130.029 12.0081L26.3631 51.3409C23.9504 52.2611 21.9866 54.1384 20.9015 56.5616C19.8164 58.9848 19.6985 61.7566 20.5736 64.2701L45.0281 134.355C46.8683 139.581 51.7523 140.373 56.7801 138.48L160.449 99.1376C163.433 97.9909 167.357 94.8171 169.163 92.0577L186.263 64.2476C188.066 61.4979 188.636 56.6952 187.541 53.5622L185.561 47.8727C206.703 38.7774 231.276 19.1411 228.957 -13.9161ZM165.057 65.2041C163.148 65.9267 161.12 66.2508 159.09 66.158C157.061 66.0652 155.068 65.5572 153.228 64.6631C151.387 63.7691 149.733 62.5064 148.361 60.9472C146.99 59.3881 145.927 57.563 145.233 55.5764C143.829 51.5559 144.015 47.1199 145.751 43.2421C147.487 39.3643 150.631 36.3616 154.493 34.8931C157.52 33.7461 160.816 33.6116 163.919 34.5083C167.023 35.405 169.78 37.2883 171.805 39.8947C168.87 40.7753 166.893 41.2188 166.531 41.2731C165.232 41.5234 164.054 42.225 163.189 43.2632C162.323 44.3014 161.823 45.6146 161.769 46.9874C161.715 48.3603 162.111 49.7116 162.892 50.8197C163.673 51.9279 164.792 52.7273 166.067 53.0869C166.866 53.3096 167.733 53.3442 168.601 53.1822C170.633 52.7954 172.836 52.2806 175.173 51.5959C174.89 54.625 173.79 57.5094 172.001 59.9169C170.211 62.3244 167.804 64.1571 165.057 65.2041Z" fill="url(#paint0_linear_26_160)"/>
</g>
<defs>
<linearGradient id="paint0_linear_26_160" x1="52.5782" y1="-67.0133" x2="251.168" y2="90.324" gradientUnits="userSpaceOnUse">
<stop stop-color="#208275"/>
<stop offset="1" stop-color="#2DD4BF"/>
</linearGradient>
<clipPath id="clip0_26_160">
<rect width="192.882" height="199.596" fill="white" transform="matrix(0.963276 0.268512 -0.249427 0.968394 49.8523 -68.0364)"/>
</clipPath>
</defs>
</svg>
