<svg width="167" height="206" viewBox="0 0 167 206" fill="none" xmlns="http://www.w3.org/2000/svg">
<path d="M164.393 -0.25H109.715L144.507 47.9867L164.393 -0.25ZM48.4245 -0.25L68.3105 47.9867L103.103 -0.25H48.4245ZM106.409 18.0848L79.9603 54.75H132.857L106.409 18.0848ZM175.402 7.93984L156.107 54.75H202.285L175.402 7.93984ZM37.4153 7.93984L10.1196 54.75H56.7104L37.4153 7.93984V7.93984ZM61.2314 68.5H10.5329L102.607 192.25H102.826L61.2314 68.5ZM151.586 68.5L109.992 192.25H110.211L202.285 68.5H151.586ZM136.738 68.5H76.0798L106.409 157.875L136.738 68.5Z" fill="url(#paint0_linear_27_758)"/>
<defs>
<linearGradient id="paint0_linear_27_758" x1="10.1196" y1="-0.25" x2="241.655" y2="108.182" gradientUnits="userSpaceOnUse">
<stop stop-color="#208275"/>
<stop offset="1" stop-color="#2DD4BF"/>
</linearGradient>
</defs>
</svg>
