<svg width="32" height="32" viewBox="0 0 32 32" fill="none" xmlns="http://www.w3.org/2000/svg">
<path fill-rule="evenodd" clip-rule="evenodd" d="M3.09886 6.13372C3.57729 5.63603 4.36859 5.62042 4.86628 6.09886L13.7084 14.5989C13.9535 14.8345 14.0921 15.1599 14.0921 15.5C14.0921 15.8401 13.9535 16.1655 13.7084 16.4011L4.86628 24.9011C4.36859 25.3796 3.57729 25.364 3.09886 24.8663C2.62042 24.3686 2.63603 23.5773 3.13372 23.0989L11.0384 15.5L3.13372 7.90115C2.63603 7.42271 2.62042 6.63141 3.09886 6.13372ZM18.2568 6.13372C18.7352 5.63603 19.5265 5.62042 20.0242 6.09886L28.8663 14.5989C29.1114 14.8345 29.25 15.1599 29.25 15.5C29.25 15.8401 29.1114 16.1655 28.8663 16.4011L20.0242 24.9011C19.5265 25.3796 18.7352 25.364 18.2568 24.8663C17.7783 24.3686 17.7939 23.5773 18.2916 23.0989L26.1963 15.5L18.2916 7.90115C17.7939 7.42271 17.7783 6.63141 18.2568 6.13372Z" fill="#7D7D7D"/>
</svg>
