<svg width="140" height="140" viewBox="0 0 140 140" fill="none" xmlns="http://www.w3.org/2000/svg">
<path fill-rule="evenodd" clip-rule="evenodd" d="M80.75 0.713638C78.6614 1.7856 77.7729 3.14703 76.9097 6.59901C76.691 7.47321 76.5907 7.56492 75.4485 7.9348C74.7738 8.15312 73.0701 8.9319 71.6619 9.66518L69.102 10.9984L67.328 10.1198C65.7521 9.33897 65.3636 9.24102 63.8445 9.24102C61.447 9.24102 60.3136 9.86132 58.0024 12.4382C55.4134 15.3248 54.9592 16.2621 54.9616 18.7131C54.9637 20.8209 55.1022 21.2345 56.5502 23.4491L57.3054 24.6042L56.484 26.8632C55.7826 28.792 55.5783 29.1411 55.086 29.2513C52.2286 29.8917 50.8048 30.6901 49.654 32.2971C48.605 33.7618 48.3229 35.026 48.3229 38.2627C48.3229 41.7509 48.7566 43.1974 50.2682 44.7494C51.3476 45.8578 52.5171 46.4604 54.4525 46.9053L55.7122 47.1948L56.385 49.1701L57.0577 51.1456L56.1083 52.5451C54.9191 54.2977 54.6595 54.9228 54.484 56.4566C54.2037 58.9052 55.5911 61.5731 58.8469 64.8463C60.9462 66.9567 63.755 67.2894 66.8266 65.7914L68.4619 64.9939L70.7096 66.2216C71.9461 66.8966 73.7169 67.7281 74.6449 68.0691C75.5729 68.4103 76.4094 68.7569 76.5034 68.8393C76.5977 68.922 76.8814 69.7551 77.134 70.691C77.6771 72.7039 78.4546 73.9753 79.7748 75.0093C81.171 76.1028 82.6225 76.4694 85.5562 76.4694C88.4131 76.4694 89.8622 76.121 91.2266 75.1061C92.5081 74.1529 93.1065 73.1916 93.8802 70.8442L94.5554 68.7964L96.6355 68.0337C97.7795 67.6142 99.4661 66.8481 100.383 66.3311L102.051 65.391L103.815 66.2461C105.353 66.9918 105.795 67.1018 107.266 67.1071C109.758 67.1156 110.997 66.4214 113.352 63.6946C115.658 61.0242 116.082 60.1883 116.218 58.0428C116.343 56.0828 116.049 55.1118 114.708 53.0434L113.824 51.6801L114.286 50.5022C114.54 49.8541 114.903 48.8432 115.091 48.2554C115.424 47.214 115.465 47.1802 116.693 46.9106C119.538 46.2862 121.695 44.5685 122.435 42.3391C122.849 41.0925 122.931 35.7623 122.557 34.3819C121.917 32.015 119.79 30.1386 117.008 29.4869C116.206 29.2993 115.517 29.111 115.476 29.0688C115.435 29.0265 115.101 28.1474 114.734 27.1152L114.067 25.2388L115.059 23.7748C117.062 20.82 117.221 17.9324 115.524 15.3673C114.18 13.3366 111.684 10.794 110.475 10.2261C108.587 9.33828 106.622 9.42699 104.394 10.5003L102.654 11.3385L99.842 9.8567C98.2953 9.04187 96.4591 8.19077 95.7617 7.96553L94.4933 7.55591L94.01 5.67676C93.3587 3.14564 92.345 1.75672 90.4145 0.750832C88.9767 0.00161717 88.9659 0 85.5573 0C82.1896 0 82.121 0.0101661 80.75 0.713638ZM87.8855 9.06844C88.4415 11.554 88.9254 12.6223 89.7216 13.1229C89.9848 13.2886 91.0784 13.6852 92.1515 14.0048C94.5882 14.7297 97.1786 15.9729 99.4771 17.52C101.851 19.1176 102.436 19.1197 105.499 17.5411C106.75 16.8965 107.843 16.4548 107.928 16.5592C108.013 16.6639 108.515 17.2953 109.045 17.9625L110.008 19.1756L108.888 20.7348C106.44 24.1428 106.361 24.5996 107.697 27.6651C108.182 28.777 108.804 30.4665 109.079 31.4195C110.03 34.7106 110.217 34.8867 113.735 35.7921L116.153 36.4142L116.217 38.2677L116.282 40.1213L113.968 40.6538C110.268 41.5049 109.855 41.8576 108.961 44.9344C108.628 46.078 107.947 47.9334 107.447 49.0578C106.17 51.9297 106.254 52.613 108.231 55.4648L109.717 57.6066L108.582 58.9521C107.957 59.6921 107.373 60.2976 107.283 60.2976C107.193 60.2976 106.266 59.8159 105.224 59.2273C103.806 58.4261 103.018 58.1306 102.092 58.0525C100.937 57.955 100.756 58.0137 99.3921 58.9293C97.3111 60.3258 94.1905 61.791 91.994 62.403C89.2203 63.1755 88.8264 63.6371 88.0158 67.0637L87.3717 69.7868L85.5775 69.7205L83.7834 69.6542L83.1683 67.1337C82.8299 65.7473 82.3579 64.3438 82.1192 64.0148C81.6684 63.3931 80.8002 62.9865 78.132 62.147C76.2294 61.5486 73.4053 60.1262 71.8687 58.9926C70.5634 58.0297 69.4835 57.5253 68.7265 57.5253C68.4333 57.5253 67.1582 58.0451 65.8929 58.6804C64.6279 59.3158 63.5129 59.8356 63.4151 59.8356C63.3174 59.8356 62.7694 59.2236 62.197 58.4758L61.1568 57.1157L61.9012 56.1077C64.7296 52.2783 64.8304 51.7585 63.3849 48.462C62.8837 47.3191 62.2589 45.5601 61.9964 44.553C61.3158 41.9417 60.6733 41.388 57.4802 40.66L55.0721 40.1111V38.2001V36.2888L55.9158 36.0608C56.3799 35.9353 57.4634 35.6535 58.3237 35.4344C60.5928 34.8566 61.2467 34.1599 61.9581 31.5627C62.2672 30.4341 62.9784 28.5108 63.5383 27.2887C64.924 24.2637 64.8686 23.6307 62.9809 20.9207C62.2195 19.8275 61.6006 18.8055 61.606 18.6498C61.6114 18.494 62.1032 17.8079 62.699 17.1252L63.782 15.8837L66.2326 17.2026C69.3004 18.8538 69.7582 18.847 72.3913 17.1125C74.6116 15.6499 76.6404 14.6969 79.0823 13.9692C81.294 13.3103 81.917 12.9245 82.3768 11.9295C82.6513 11.3355 83.6439 7.33113 83.6439 6.81779C83.6439 6.75287 84.479 6.7002 85.4999 6.70043L87.356 6.70135L87.8855 9.06844ZM83.2295 24.0396C80.8204 24.4813 77.7174 26.0885 75.9702 27.7997C74.1605 29.5719 72.6962 32.1241 72.0737 34.59C71.6242 36.3719 71.6172 39.914 72.0597 41.7093C73.5796 47.8759 79.2897 52.4428 85.4799 52.4428C87.8993 52.4428 89.275 52.1048 91.6822 50.9187C101.404 46.1291 102.229 32.3819 93.1648 26.2038C90.4748 24.3704 86.3393 23.4694 83.2295 24.0396ZM88.6977 31.4155C90.095 32.11 91.3322 33.3802 92.1259 34.9347C92.6636 35.988 92.7495 36.4251 92.7522 38.1192C92.7549 39.8061 92.6665 40.2684 92.1254 41.4004C90.3796 45.0509 85.9685 46.6854 82.4868 44.9716C81.0049 44.2423 79.5268 42.6926 78.8542 41.1632C78.1781 39.6259 78.1754 36.8 78.8485 35.2979C79.7811 33.2173 80.9271 32.0864 83.0727 31.1297C84.3962 30.5395 87.2246 30.6832 88.6977 31.4155ZM40.48 79.7128C32.5114 80.4994 23.0044 84.6754 15.6158 90.6343C14.888 91.2213 11.4277 93.2164 7.92574 95.0683C1.2017 98.6243 0.3414 99.2527 0.0554575 100.818C-0.0241835 101.254 -0.0172092 101.854 0.0709808 102.151C0.159171 102.448 4.24381 110.423 9.14758 119.873C19.0008 138.861 18.6539 138.311 20.716 138.219C21.7295 138.173 22.4105 137.8 28.396 134.009C32.0082 131.721 35.334 129.69 35.7866 129.496C37.4453 128.785 38.2136 128.979 42.5853 131.215C53.4541 136.773 63.461 139.995 69.875 140C71.8491 140.002 76.7927 139.442 80.0443 138.849C99.0497 135.384 119.877 123.927 135.451 108.37C137.886 105.938 138.456 105.23 139.164 103.759C139.989 102.043 140 101.987 140 99.2254C140 96.4425 139.996 96.4203 139.126 94.6132C136.534 89.2287 130.322 86.5488 124.903 88.4774C122.531 89.3216 106.202 99.0528 99.9289 103.361C98.7187 104.192 97.7016 104.844 97.6688 104.81C97.6357 104.776 97.764 104.234 97.9536 103.604C98.8936 100.485 97.2301 97.097 93.9126 95.3733C91.8721 94.3133 89.5954 93.8305 84.2371 93.3213C76.7066 92.6058 72.1828 91.7122 68.8176 90.2762C67.4918 89.7104 66.7577 89.182 65.218 87.6864C64.1541 86.6528 62.7973 85.4646 62.2031 85.046C60.757 84.0279 56.5009 81.9648 54.3376 81.2336C50.3215 79.8763 44.8772 79.2787 40.48 79.7128ZM49.5602 86.9503C52.2588 87.5526 54.2037 88.2563 56.4879 89.4569C58.2755 90.3965 59.1475 91.058 61.1115 92.9642C63.708 95.4839 65.281 96.4573 68.5706 97.5796C71.9101 98.719 78.5437 99.8404 83.7564 100.146C85.1175 100.227 86.928 100.393 87.7798 100.516C89.47 100.761 91.518 101.556 91.518 101.967C91.518 102.109 90.7706 102.966 89.8575 103.871C87.2475 106.457 83.27 108.267 77.6254 109.437C74.639 110.057 68.5814 110.001 65.2871 109.325C63.9143 109.043 62.2027 108.605 61.4834 108.351C57.9223 107.093 55.817 108.443 55.947 111.901C55.983 112.858 57.3707 114.175 59.0092 114.809C64.7165 117.015 77.9707 117.277 87.9184 115.38C92.4642 114.513 97.7518 112.691 100.467 111.055C101.175 110.629 104.994 108.199 108.954 105.655C115.597 101.387 124.911 95.8312 126.732 95.0499C128.603 94.247 131.333 95.0314 132.599 96.7352C133.449 97.8797 133.592 99.5918 132.946 100.891C132.449 101.893 129.131 105.176 125.264 108.493C120.547 112.538 114.154 117.162 109.178 120.124C106.51 121.713 98.7496 125.608 95.8726 126.802C85.8039 130.981 73.74 133.565 67.6707 132.842C61.9806 132.164 54.68 129.524 45.6241 124.87C40.7772 122.379 39.2456 121.879 36.9616 122.046L35.3868 122.161L28.3564 108.692C24.4897 101.285 21.3259 95.1367 21.3261 95.03C21.3264 94.6312 25.371 92.0823 28.4126 90.5638C32.7267 88.4097 36.2064 87.3003 41.0112 86.5467C42.3424 86.3379 48.0162 86.6059 49.5602 86.9503ZM22.3696 112.192C26.1424 119.291 29.2477 125.184 29.2707 125.287C29.3332 125.568 22.1426 130.074 21.9493 129.876C21.7745 129.696 8.05916 103.281 7.98356 102.978C7.9154 102.706 15.1162 98.9073 15.3247 99.1062C15.4269 99.2035 18.597 105.092 22.3696 112.192Z" fill="url(#paint0_linear_106_2381)"/>
<defs>
<linearGradient id="paint0_linear_106_2381" x1="0" y1="0" x2="168.577" y2="79.0848" gradientUnits="userSpaceOnUse">
<stop stop-color="#208275"/>
<stop offset="1" stop-color="#2DD4BF"/>
</linearGradient>
</defs>
</svg>
