<svg width="120" height="140" viewBox="0 0 120 140" fill="none" xmlns="http://www.w3.org/2000/svg">
<path fill-rule="evenodd" clip-rule="evenodd" d="M26.3181 0.117359C25.9876 0.168895 25.4556 0.457726 25.1355 0.759382C24.5537 1.30749 24.5537 1.30795 24.5537 5.2123V9.1171H13.189C4.85765 9.1171 1.66673 9.19017 1.2338 9.39081C-0.0868537 10.0026 0.00121974 5.48509 0.00121974 72.5484V134.17L0.658505 134.918L1.31579 135.666L38.6698 135.78L76.0237 135.895L78.6718 137.228C80.3952 138.096 82.2438 138.811 83.9652 139.276C86.4752 139.953 86.8297 139.991 90.8904 140C95.36 140.009 96.3092 139.885 99.7878 138.835C105.236 137.19 110.752 133.212 114.405 128.293C115.914 126.261 118.099 121.765 118.808 119.235C121.712 108.866 119.25 98.423 112.085 90.7176C108.746 87.1273 104.528 84.4218 99.9004 82.9023L97.8732 82.2364L97.7587 46.1921C97.6959 26.3678 97.6198 10.1206 97.5898 10.0871C97.5598 10.0539 97.206 9.82234 96.8032 9.57268C96.0991 9.13611 95.6389 9.1187 84.7522 9.11802L73.4333 9.1171L73.4329 5.62413C73.4327 1.5425 73.1903 0.716779 71.8566 0.254332C71.2651 0.0493339 65.5538 -0.0136556 48.9935 0.00237775C36.8524 0.0142882 26.6485 0.0660527 26.3181 0.117359ZM68.9283 11.2931V18.05H48.8809H28.8335V11.2931V4.53615H48.8809H68.9283V11.2931ZM33.3385 11.4076V13.6981H35.591H37.8435V11.4076V9.1171H35.591H33.3385V11.4076ZM60.1435 11.4076V13.6981H62.2834H64.4233V11.4076V9.1171H62.2834H60.1435V11.4076ZM24.5537 17.495V21.2919L25.2121 21.9614L25.8705 22.6309H29.6045H33.3385L33.3417 24.406C33.3432 25.3822 33.4059 26.4129 33.4804 26.6965L33.6162 27.2119H21.993H10.37L9.63434 27.8802L8.89867 28.5486V74.3196C8.89867 99.4938 8.97345 120.361 9.06491 120.692C9.15636 121.023 9.51113 121.487 9.85329 121.723C10.4513 122.136 11.5179 122.155 37.5057 122.218L64.5359 122.283L65.267 123.863C66.1318 125.73 67.6484 128.054 69.1961 129.882L70.3107 131.2H37.4086H4.50626V72.4488V13.6981H14.53H24.5537V17.495ZM93.4807 47.5971V81.4962H91.2282H88.9757V55.281C88.9757 35.4441 88.9102 28.9196 88.7065 28.4652C88.1443 27.2103 88.1616 27.2119 75.8097 27.2119H64.4233V24.9214V22.6309H68.21C71.7433 22.6309 72.0309 22.5988 72.5037 22.1508C73.3146 21.3824 73.4333 20.7406 73.4333 17.1189V13.6981H83.457H93.4807V47.5971ZM59.9182 24.9214V27.2119H49.0176C39.2854 27.2119 38.1023 27.1729 37.9803 26.8495C37.905 26.6502 37.8435 25.6195 37.8435 24.559V22.6309H48.8809H59.9182V24.9214ZM35.5984 33.0659C39.8564 40.6334 50.391 43.0129 57.5824 38.0319C59.2582 36.871 61.1875 34.8059 62.1806 33.1098L62.9517 31.7928H73.7113H84.4707V57.1026C84.4707 78.5243 84.4227 82.4124 84.1585 82.4124C83.4805 82.4124 80.1886 83.6753 78.1114 84.7324L75.9192 85.8481H46.8577H17.7961V88.1385V90.429H44.0461H70.296L68.8364 92.2525C68.0336 93.2555 67.2662 94.2862 67.131 94.5429C66.8859 95.0086 66.8098 95.01 42.3407 95.01H17.7961V97.3004V99.5909H41.1284C59.7072 99.5909 64.4368 99.6493 64.3428 99.8772C64.278 100.035 63.9536 101.014 63.6218 102.053L63.0186 103.943H40.4074H17.7961V106.233V108.524H40.0418H62.2876L62.3212 111.215C62.3505 113.573 62.6181 116.015 62.9859 117.285C63.0961 117.665 61.8101 117.686 38.1965 117.686H13.2911V74.7393V31.7928H24.0867H34.8821L35.5984 33.0659ZM56.6435 32.952C55.9252 33.6971 54.8478 34.4541 53.6281 35.0707L51.7305 36.0302H48.8978C46.1089 36.0302 46.0391 36.0174 44.3758 35.2061C42.8061 34.4402 40.3213 32.4758 40.3213 32.0006C40.3213 31.8799 43.972 31.7928 49.0413 31.7928H57.7614L56.6435 32.952ZM17.7961 52.1781V54.4685H48.8809H79.9656V52.1781V49.8876H48.8809H17.7961V52.1781ZM17.7961 61.1109V63.4014H48.8809H79.9656V61.1109V58.8204H48.8809H17.7961V61.1109ZM17.7961 70.1583V72.3343H48.8809H79.9656V70.1583V67.9823H48.8809H17.7961V70.1583ZM17.7961 79.2057V81.4962H48.8809H79.9656V79.2057V76.9152H48.8809H17.7961V79.2057ZM97.6479 86.8598C104.265 88.8502 109.81 93.4545 112.837 99.4732C116.344 106.447 116.442 114.745 113.098 121.689C105.68 137.093 85.7048 140.51 73.8739 128.399C69.9286 124.36 67.5662 119.404 66.8765 113.718C65.4445 101.914 72.9301 90.3949 84.2454 86.9896C86.9174 86.1855 87.7233 86.0986 91.7914 86.1767C95.151 86.2411 95.8693 86.3247 97.6479 86.8598ZM99.2247 92.9437C98.9769 93.0512 93.5794 98.4324 87.23 104.902L75.6858 116.665V120.973V125.28L76.3443 125.949L77.0027 126.619H81.2343H85.4656L97.0262 114.88C108.74 102.985 109.092 102.579 108.84 101.239C108.71 100.546 102.038 93.5663 101.049 93.0894C100.201 92.6801 99.8905 92.6551 99.2247 92.9437ZM103.392 101.76C103.392 101.889 98.9575 106.504 93.538 112.016L83.6843 122.038H81.8249H79.9656V120.378V118.718L90.0425 108.47L100.119 98.221L101.756 99.8738C102.655 100.783 103.392 101.632 103.392 101.76Z" fill="url(#paint0_linear_301_27)"/>
<defs>
<linearGradient id="paint0_linear_301_27" x1="0" y1="0" x2="151.757" y2="61.0235" gradientUnits="userSpaceOnUse">
<stop stop-color="#208275"/>
<stop offset="1" stop-color="#2DD4BF"/>
</linearGradient>
</defs>
</svg>
