<svg width="140" height="140" viewBox="0 0 140 140" fill="none" xmlns="http://www.w3.org/2000/svg">
<path fill-rule="evenodd" clip-rule="evenodd" d="M66.0853 0.241982C59.2645 1.33857 53.0644 5.15121 49.0899 10.6931L47.9843 12.2346L29.0775 12.2396C17.8509 12.2425 9.45442 12.3446 8.40721 12.4909C4.97918 12.9704 2.35097 14.8463 0.896675 17.852L0.0940782 19.5107L0.0195105 67.4832C-0.0351546 102.614 0.0217783 115.85 0.231874 116.927C0.614782 118.891 1.43048 120.388 2.89636 121.815C4.43908 123.317 6.28283 124.198 8.45609 124.472C9.399 124.591 29.3568 124.692 52.8069 124.697L95.4432 124.705V131.142C95.4432 136.589 95.5065 137.71 95.8551 138.429C96.3652 139.481 97.3404 139.997 98.8211 139.997C100.072 139.997 99.7303 140.239 106.496 134.571C108.197 133.146 109.684 131.981 109.802 131.981C109.92 131.981 111.408 133.146 113.108 134.571C119.961 140.311 119.51 139.997 120.901 139.997C121.976 139.997 122.287 139.877 123.094 139.153L124.035 138.309L124.11 131.507L124.184 124.705L127.007 124.697C132.588 124.681 134.808 124.048 137.131 121.81C137.827 121.14 138.685 119.947 139.128 119.032L139.906 117.429L139.98 69.4564C140.035 34.3252 139.978 21.0899 139.768 20.0121C138.972 15.9306 135.78 13.0017 131.544 12.4672C130.601 12.3481 121.315 12.2472 110.909 12.2428L91.9877 12.2346L91.0559 10.8606C87.7939 6.05048 82.0714 2.13301 76.09 0.615405C73.5905 -0.0187199 68.8152 -0.197046 66.0853 0.241982ZM72.771 6.3319C81.757 7.75751 88.3504 14.7931 89.0545 23.7078C89.3454 27.3922 88.3017 31.2941 86.0207 35.0488C82.0805 41.5346 80.1191 47.2457 79.6664 53.5504L79.4984 55.8909H70.0007H60.5034L60.3469 53.5618C59.9403 47.499 57.6515 40.8425 53.9191 34.868C52.756 33.0064 51.7751 30.6423 51.3332 28.6365C50.8788 26.5731 50.9533 22.3399 51.4786 20.3739C53.306 13.5357 58.9491 8.12428 65.7175 6.71939C69.0256 6.03248 70.4058 5.95675 72.771 6.3319ZM45.2253 19.2024C44.3527 22.6199 44.4215 27.2178 45.4019 30.9797C46.1478 33.8417 46.7403 35.1591 49.0486 39.0908C52.3575 44.7272 54.1224 50.5574 54.132 55.8844C54.1363 58.3075 55.7757 60.7813 57.9711 61.6779L58.9158 62.0637L58.9188 65.2049C58.9206 67.0747 59.0617 68.8607 59.2672 69.6167C60.0854 72.6257 62.3008 75.2841 65.124 76.6451L66.7251 77.4168V92.4489V107.481L65.7804 106.753C64.037 105.408 62.3267 104.516 59.9204 103.693L57.5303 102.877L31.8946 102.808L6.25864 102.74L6.3254 61.742C6.37931 28.4266 6.45388 20.6373 6.72292 20.1756C6.9048 19.8634 7.41493 19.392 7.85653 19.1284C8.63192 18.6657 9.28362 18.6491 27.013 18.6484L45.3672 18.6474L45.2253 19.2024ZM132.175 19.1471C132.633 19.4209 133.156 20.003 133.337 20.441C133.604 21.0885 133.642 28.8533 133.54 61.9887L133.414 102.74L107.942 102.808L82.4697 102.877L80.7063 103.46C78.3791 104.23 76.2228 105.299 74.5974 106.488L73.2749 107.456V92.4363V77.4168L74.8984 76.6342C77.6574 75.3043 79.7178 72.9577 80.6249 70.1127C80.9731 69.021 81.0842 67.8744 81.0842 65.3763V62.0802L82.1548 61.6135C83.4222 61.061 84.6709 59.8665 85.273 58.6306C85.5463 58.0692 85.7844 56.6934 85.9176 54.9043C86.3272 49.4016 87.8057 44.4529 90.3024 40.2289C93.5965 34.6559 94.4094 32.7493 95.0734 29.0359C95.6249 25.9533 95.4929 21.3632 94.787 19.079C94.6608 18.6706 95.644 18.6474 112.997 18.6484C130.952 18.6491 131.359 18.6597 132.175 19.1471ZM18.1059 34.3641C15.7137 35.2442 15.1915 38.127 17.1342 39.7274L17.8925 40.3522H27.0934H36.294L37.1306 39.5331C38.2259 38.4607 38.471 37.2415 37.844 35.9848C36.9638 34.2206 36.7434 34.1843 27.0488 34.206C22.338 34.2164 18.3137 34.2877 18.1059 34.3641ZM103.557 34.5975C101.613 35.5355 101.325 38.3176 103.027 39.7198L103.795 40.3522H112.996H122.196L123.038 39.5282C123.501 39.0748 123.961 38.3884 124.06 38.0024C124.332 36.9386 123.683 35.4114 122.676 34.7492C121.825 34.1895 121.766 34.1861 113.103 34.1917C105.578 34.1964 104.273 34.2519 103.557 34.5975ZM17.9585 50.0752C17.0141 50.478 16.1823 51.4673 15.9618 52.4504C15.7563 53.3667 16.4455 54.799 17.4315 55.5049C18.1268 56.0026 18.4152 56.0142 30.1531 56.0142C41.628 56.0142 42.1999 55.9927 42.9783 55.5317C45.1389 54.2521 44.9936 51.192 42.7221 50.1366C41.9331 49.7701 40.566 49.7257 30.2856 49.7343C21.1895 49.742 18.5707 49.8145 17.9585 50.0752ZM97.2154 50.179C95.2948 51.1873 94.9762 53.5097 96.5471 55.0478C97.1892 55.6765 97.647 55.8775 98.7314 56.007C99.4862 56.0971 104.998 56.1355 110.981 56.0924C121.538 56.0164 121.879 55.9991 122.569 55.5009C123.686 54.6941 124.27 53.4525 124.057 52.3377C123.869 51.3578 122.957 50.326 121.941 49.944C121.62 49.8234 116.12 49.7247 109.719 49.7247C98.8952 49.7247 98.0198 49.7565 97.2154 50.179ZM74.7863 65.0246C74.7863 66.9226 74.6685 68.0221 74.3964 68.6592C73.6056 70.5127 72.1471 71.4887 70.126 71.5173C68.4734 71.5408 67.0745 70.8319 66.0953 69.4751C65.3698 68.4695 65.3361 68.3055 65.2507 65.3657L65.1618 62.3036H69.974H74.7863V65.0246ZM17.9585 65.6139C17.0141 66.0166 16.1823 67.0059 15.9618 67.9891C15.7563 68.9053 16.4455 70.3376 17.4318 71.0435C18.1318 71.5449 18.3812 71.5528 33.4393 71.5528C50.4324 71.5528 49.587 71.6345 50.4996 69.9065C51.012 68.9364 50.8556 67.1823 50.1916 66.4525C49.1136 65.2676 49.0443 65.2626 33.4177 65.273C21.6999 65.2806 18.5787 65.3495 17.9585 65.6139ZM90.9768 65.6259C89.3321 66.3321 88.659 68.5489 89.6205 70.0927C90.6244 71.7048 90.3216 71.6762 106.345 71.6762C114.308 71.6762 121.184 71.6054 121.626 71.519C122.067 71.4327 122.757 71.0398 123.159 70.6462C124.531 69.3034 124.378 67.1186 122.834 65.9843L122.02 65.3867L106.905 65.3317C94.3265 65.2858 91.654 65.3354 90.9768 65.6259ZM18.4104 81.0408C15.5122 81.727 15.0502 85.5842 17.7179 86.8236C18.4623 87.1694 20.6525 87.2148 36.6215 87.2148C56.509 87.2148 55.8097 87.2676 56.7569 85.6977C57.6683 84.1872 57.2204 82.3285 55.7117 81.3604C55.0817 80.9562 53.7702 80.9224 37.1367 80.8849C27.2932 80.8627 18.8664 80.933 18.4104 81.0408ZM85.3851 80.9779C83.2098 81.3925 82.0523 84.185 83.3736 85.8299C84.5304 87.2696 83.7318 87.2148 103.555 87.2138C120.93 87.2131 121.804 87.1916 122.544 86.7497C123.38 86.2504 124.162 84.9067 124.16 83.9712C124.159 83.1935 123.337 81.9174 122.484 81.3703C121.833 80.9527 120.688 80.9234 103.894 80.8933C94.0501 80.8758 85.7214 80.9138 85.3851 80.9779ZM56.1448 109.173C58.1329 109.477 60.9417 110.776 62.4829 112.104C63.8994 113.324 65.3149 115.313 65.9709 117.003L66.4712 118.292H37.6155C6.12337 118.292 7.88777 118.373 6.87986 116.887C6.49847 116.324 6.39241 115.588 6.30953 112.933C6.25361 111.138 6.27401 109.501 6.35488 109.295C6.48512 108.963 9.25011 108.92 30.5048 108.922C45.4662 108.923 55.124 109.018 56.1448 109.173ZM95.4432 113.606V118.292H84.486H73.5288L74.0291 117.003C75.5202 113.161 79.2089 110.092 83.2917 109.297C84.3507 109.09 86.954 108.957 90.216 108.943L95.4432 108.92V113.606ZM117.803 119.587C117.839 125.386 117.802 130.131 117.72 130.131C117.638 130.131 116.418 129.156 115.009 127.963C111.174 124.718 111.153 124.705 109.802 124.705C108.451 124.705 108.431 124.718 104.595 127.963C103.187 129.156 101.968 130.131 101.887 130.131C101.68 130.131 101.705 109.284 101.913 109.081C102.007 108.988 105.606 108.942 109.911 108.978L117.738 109.043L117.803 119.587ZM133.734 112.257C133.734 117.849 133.297 118.29 127.751 118.291L124.161 118.292V113.606V108.92H128.948H133.734V112.257Z" fill="url(#paint0_linear_301_349)"/>
<defs>
<linearGradient id="paint0_linear_301_349" x1="0" y1="0" x2="168.577" y2="79.0848" gradientUnits="userSpaceOnUse">
<stop stop-color="#208275"/>
<stop offset="1" stop-color="#2DD4BF"/>
</linearGradient>
</defs>
</svg>
