<svg width="120" height="140" viewBox="0 0 120 140" fill="none" xmlns="http://www.w3.org/2000/svg">
<path fill-rule="evenodd" clip-rule="evenodd" d="M10.7248 0.176612C9.20653 0.593457 9.25055 0.20002 9.25055 13.3274V25.2182H7.11145C5.93487 25.2182 4.55877 25.3445 4.05315 25.4991C2.88922 25.8548 1.18852 27.371 0.517093 28.6513L0 29.6374V82.5494V135.461L0.517796 136.449C1.2185 137.785 2.35456 138.9 3.62739 139.501C4.68102 139.999 4.76368 140 34.0748 140C58.4544 140 63.6255 139.944 64.4026 139.67C65.8305 139.168 67.3141 137.813 67.9422 136.436L68.4962 135.222L68.4986 107.333L68.5009 79.4439H91.6442C117.886 79.4439 116.177 79.5679 118.186 77.5183C120.104 75.5617 120.048 76.1956 119.972 57.3191C119.91 41.881 119.879 40.802 119.47 39.8477C118.924 38.5742 117.087 36.8648 115.863 36.4907C115.172 36.2795 108.981 36.2066 91.7393 36.2066H68.545L68.4644 32.8026C68.3888 29.61 68.3445 29.3305 67.7515 28.3012C67.0426 27.0714 65.7998 26.0048 64.5408 25.5457C64.0785 25.377 62.7251 25.2344 61.5337 25.2287L59.3675 25.2182L59.364 13.5728C59.3614 4.79894 59.289 1.78332 59.0708 1.3433C58.9113 1.02201 58.4469 0.560253 58.0387 0.317073C57.3719 -0.0804236 57.2164 -0.0909347 56.5068 0.211487C56.0724 0.396381 54.7539 1.26638 53.5769 2.14427L51.4366 3.74046L49.0204 1.97753C47.6914 1.00768 46.4188 0.146032 46.1921 0.0624244C45.5596 -0.1712 44.7162 0.254724 42.2371 2.06018L39.9584 3.71968L37.4699 1.88795C35.7006 0.585575 34.7804 0.0562169 34.2856 0.0562169C33.6191 0.0562169 32.8434 0.527764 29.7128 2.83606L28.5123 3.72135L26.2182 2.0265C23.5367 0.0452251 23.0594 -0.178842 22.2184 0.147229C21.7346 0.334989 19.1678 2.09697 17.3138 3.51448C17.1655 3.62795 16.1304 3.02096 14.7756 2.02626C12.1149 0.0729371 11.7349 -0.100728 10.7248 0.176612ZM25.2397 6.70496C28.3233 8.9748 28.6463 9.00442 31.0643 7.23886C32.0116 6.54706 33.1175 5.74204 33.5219 5.44989L34.2568 4.91862L36.6835 6.70711C39.5031 8.78513 40.1919 8.93873 41.7095 7.82818C42.2118 7.46054 43.3155 6.65862 44.1621 6.04589L45.7012 4.932L48.1389 6.71428C51.1272 8.89908 51.6148 8.97194 53.5916 7.52791L54.9178 6.55925V20.4274V34.2956H34.1919H13.466V20.4265C13.466 9.39881 13.5259 6.59245 13.7587 6.72885C13.9199 6.82321 14.5398 7.2594 15.1367 7.69846C16.8266 8.94112 17.3992 8.83219 20.2873 6.71906C21.6233 5.74132 22.7367 4.9351 22.7613 4.92746C22.7859 4.91981 23.9011 5.71958 25.2397 6.70496ZM21.8969 13.4471C20.5735 13.6908 19.7676 15.1733 20.277 16.4276C20.8454 17.8275 20.6976 17.8129 34.4324 17.8129H46.9914L47.6759 17.1146C48.9204 15.8452 48.4565 14.0006 46.7729 13.5236C45.9202 13.282 23.1725 13.2121 21.8969 13.4471ZM21.265 23.5489C20.5557 23.8403 19.9468 25.1116 20.1388 25.9009C20.2231 26.248 20.5135 26.7737 20.784 27.0695L21.276 27.607H34.2439H47.2118L47.7863 26.9749C48.6036 26.0753 48.5603 24.9074 47.6759 24.0054L46.9914 23.3071L34.3856 23.3222C27.4524 23.3305 21.5482 23.4325 21.265 23.5489ZM9.25055 31.8765V34.2349L8.06016 34.3515C6.51145 34.5032 5.86532 35.1276 5.86532 36.472C5.86532 37.2474 6.00139 37.5711 6.51707 38.0236L7.16906 38.5954H34.29H61.4113L62.0288 37.9658C63.4302 36.5363 62.3663 34.2956 60.2862 34.2956H59.3675V31.9068V29.518H61.2516C62.9618 29.518 63.1914 29.5746 63.7363 30.1307L64.337 30.7432L64.1918 82.7441L64.0466 134.745L63.5546 135.163C63.0918 135.556 61.3431 135.581 34.1659 135.581C5.58148 135.581 5.26415 135.575 4.80092 135.103C4.33535 134.628 4.33254 134.307 4.33254 82.5864C4.33254 33.3236 4.35432 30.5282 4.74237 30.1833C5.35806 29.6362 5.70068 29.5574 7.55267 29.5369L9.25055 29.518V31.8765ZM115.031 41.0258C115.533 41.5067 115.573 41.737 115.573 44.1313V46.7174H92.0372H68.5009V43.6119V40.5065H91.4952H114.489L115.031 41.0258ZM12.3456 43.1048C10.9032 43.6167 10.1482 44.2727 9.28685 45.7618L8.66508 46.8368V59.2586V71.6803L9.30442 72.7899C10.1241 74.2117 11.0566 75.0034 12.4801 75.4857C13.4971 75.8304 15.8245 75.8638 34.6769 75.806L55.7375 75.7413L56.6965 75.2179C57.2239 74.9301 58.0012 74.293 58.4237 73.8021C60.0047 71.9651 59.953 72.4576 59.953 59.2586C59.953 46.0595 60.0047 46.5521 58.4237 44.7151C58.0012 44.2242 57.2239 43.5871 56.6965 43.2992L55.7375 42.7758L34.6603 42.7207C14.7245 42.6686 13.5161 42.6894 12.3456 43.1048ZM55.2525 47.5704C55.5766 47.9013 55.6204 49.2927 55.6204 59.2586C55.6204 69.2244 55.5766 70.6159 55.2525 70.9467C54.9235 71.2821 52.6907 71.322 34.1884 71.322H13.4925L13.1281 70.791C12.8107 70.3292 12.7634 68.8293 12.7634 59.2586C12.7634 49.6878 12.8107 48.1879 13.1281 47.7262L13.4925 47.1951H34.1884C52.6907 47.1951 54.9235 47.235 55.2525 47.5704ZM115.573 54.7198V58.1836H92.0372H68.5009V54.7198V51.2561H92.0372H115.573V54.7198ZM115.573 68.2574C115.573 73.2952 115.524 74.0873 115.186 74.4683C114.815 74.8859 113.778 74.9052 91.6496 74.9052H68.5009V68.6943V62.4834H92.0372H115.573V68.2574ZM12.6168 81.0418C12.343 81.0967 11.8688 81.413 11.563 81.7446C11.0227 82.3308 11.0049 82.4806 10.9316 87.047C10.8838 90.0232 10.9515 92.0742 11.1161 92.6406C11.5473 94.1236 12.0522 94.2545 17.3365 94.2545H21.9329L22.6175 93.5562L23.302 92.858V87.6879C23.302 84.4413 23.2079 82.3384 23.0491 82.0358C22.547 81.0788 21.4812 80.8751 17.162 80.9097C14.936 80.9276 12.8906 80.9871 12.6168 81.0418ZM29.7128 81.0418C29.439 81.0967 28.9648 81.413 28.6589 81.7446C28.1186 82.3308 28.1008 82.4806 28.0275 87.047C27.9798 90.0232 28.0474 92.0742 28.2121 92.6406C28.6432 94.1236 29.1481 94.2545 34.4324 94.2545H39.0289L39.7134 93.5562L40.398 92.858V87.6879C40.398 84.4413 40.3038 82.3384 40.1451 82.0358C39.643 81.0788 38.5772 80.8751 34.258 80.9097C32.032 80.9276 29.9865 80.9871 29.7128 81.0418ZM45.846 81.1345C44.4689 81.5568 44.3443 82.1524 44.4249 87.9313C44.5195 94.7093 43.9493 94.135 50.5853 94.135C57.216 94.135 56.6509 94.6978 56.7462 88.0006C56.7928 84.7442 56.7279 82.7312 56.5637 82.3267C56.0694 81.1094 55.6249 81.0005 50.9366 80.9493C48.5537 80.9233 46.2628 81.0067 45.846 81.1345ZM19.0369 87.6256L18.9695 89.8352L17.1545 89.905L15.3395 89.9747V87.6953V85.4159H17.222H19.1042L19.0369 87.6256ZM36.1329 87.6256L36.0655 89.8352L34.2505 89.905L32.4355 89.9747V87.6953V85.4159H34.3179H36.2001L36.1329 87.6256ZM52.3417 87.6853V89.9546H50.5853H48.8289V87.6853V85.4159H50.5853H52.3417V87.6853ZM11.6641 99.608L11.007 100.184L10.9346 105.139C10.8843 108.594 10.9473 110.302 11.1426 110.783C11.6798 112.106 11.962 112.17 17.166 112.17H21.9329L22.6175 111.472L23.302 110.774V105.723C23.302 100.613 23.2119 99.9855 22.3856 99.3383C22.1217 99.1317 20.6077 99.045 17.1676 99.0397C12.3782 99.0321 12.3133 99.0388 11.6641 99.608ZM28.7601 99.608L28.1029 100.184L28.0306 105.139C27.9802 108.594 28.0432 110.302 28.2385 110.783C28.7758 112.106 29.058 112.17 34.2619 112.17H39.0289L39.7134 111.472L40.398 110.774V105.723C40.398 100.613 40.3078 99.9855 39.4816 99.3383C39.2177 99.1317 37.7036 99.045 34.2636 99.0397C29.4741 99.0321 29.4093 99.0388 28.7601 99.608ZM45.0638 99.7303L44.3792 100.429V105.601V110.774L45.0638 111.472L45.7483 112.17H50.5542C55.2958 112.17 55.3689 112.163 56.0171 111.594L56.6743 111.018L56.7455 105.736L56.8169 100.455L56.1195 99.7432L55.4223 99.0321H50.5853H45.7483L45.0638 99.7303ZM19.0866 105.601V107.871H17.2131H15.3395V105.601V103.332H17.2131H19.0866V105.601ZM36.1825 105.601V107.871H34.309H32.4355V105.601V103.332H34.309H36.1825V105.601ZM52.3417 105.601V107.871H50.5853H48.8289V105.601V103.332H50.5853H52.3417V105.601ZM11.7145 117.519C10.9358 118.313 10.8498 119.057 10.9335 124.289L11.007 128.882L11.6559 129.544L12.3049 130.206L16.2028 130.287C20.8636 130.384 21.9981 130.244 22.7461 129.481C23.2978 128.918 23.302 128.873 23.302 123.629V118.345L22.6175 117.646L21.9329 116.948H17.1032C12.3243 116.948 12.2679 116.954 11.7145 117.519ZM28.8104 117.519C28.0318 118.313 27.9458 119.057 28.0294 124.289L28.1029 128.882L28.7519 129.544L29.4006 130.206L33.5273 130.286C38.2554 130.377 39.0636 130.275 39.8387 129.484C40.3945 128.917 40.398 128.882 40.398 123.629V118.345L39.7134 117.646L39.0289 116.948H34.1992C29.4203 116.948 29.3638 116.954 28.8104 117.519ZM45.1535 117.524L44.4963 118.1L44.4251 123.359L44.3542 128.617L45.05 129.411L45.746 130.206H50.5853H55.4246L56.1206 129.411L56.8164 128.617L56.7455 123.359L56.6743 118.1L56.0171 117.524C55.3691 116.956 55.294 116.948 50.5853 116.948C45.8767 116.948 45.8015 116.956 45.1535 117.524ZM19.0866 123.517V125.787H17.2131H15.3395V123.517V121.248H17.2131H19.0866V123.517ZM36.1825 123.517V125.787H34.309H32.4355V123.517V121.248H34.309H36.1825V123.517ZM52.3417 123.517V125.787H50.5853H48.8289V123.517V121.248H50.5853H52.3417V123.517Z" fill="url(#paint0_linear_301_298)"/>
<defs>
<linearGradient id="paint0_linear_301_298" x1="0" y1="0" x2="151.757" y2="61.0235" gradientUnits="userSpaceOnUse">
<stop stop-color="#208275"/>
<stop offset="1" stop-color="#2DD4BF"/>
</linearGradient>
</defs>
</svg>
