<svg width="140" height="140" viewBox="0 0 140 140" fill="none" xmlns="http://www.w3.org/2000/svg">
<path fill-rule="evenodd" clip-rule="evenodd" d="M109.051 0.134712C98.3239 1.71467 89.7646 10.0449 87.7798 20.8361L87.3651 23.0918L58.4866 23.1656L29.6079 23.2391L27.6604 24.2558C25.4511 25.4092 23.4668 27.3381 22.4572 29.3137C22.0723 30.0671 17.7593 45.2219 12.2892 65.0431C7.06455 83.9747 2.44382 100.322 2.02133 101.371C0.241538 105.789 -0.394266 111.423 0.238951 117.167C1.4795 128.424 8.94426 137.12 19.4094 139.5C21.4973 139.974 24.0752 140 69.7613 140C107.941 140 118.288 139.927 119.725 139.648C128.739 137.895 135.793 131.578 138.641 122.708C140.605 116.595 140.424 108.093 138.204 102.128C137.611 100.535 123.799 51.1149 123.434 49.2793C123.379 49.0028 124.071 48.3569 125.42 47.4267C130.34 44.0341 134.155 38.336 135.698 32.075C136.437 29.0788 136.482 23.7133 135.795 20.5047C133.617 10.3301 126.3 2.66189 116.752 0.544878C114.441 0.0327167 110.991 -0.151038 109.051 0.134712ZM116.124 7.51417C119.536 8.422 121.728 9.76079 124.401 12.5704C127.724 16.0629 129.088 19.012 129.684 23.9911C130.346 29.5213 128.414 35.1589 124.405 39.3948C122.355 41.561 120.208 42.937 117.136 44.054C115.311 44.7179 114.681 44.8076 111.829 44.8106C108.872 44.8139 108.398 44.7415 106.325 43.9706C101.332 42.1137 98.0596 39.0771 95.6681 34.0823C94.048 30.6993 93.5 25.3819 94.3675 21.4618C95.8084 14.948 101.147 9.27488 107.488 7.52018C110.042 6.81333 113.482 6.81087 116.124 7.51417ZM111.311 12.904C110.311 13.2745 110.276 13.6311 110.276 23.4281C110.276 28.6632 110.187 32.9464 110.079 32.9464C109.97 32.9464 108.078 31.0391 105.875 28.708C101.653 24.2416 101.049 23.8511 100.09 24.9698C99.1213 26.1005 99.4223 26.5599 104.904 32.3183C112.233 40.0166 111.64 40.0169 119.013 32.3082C123.387 27.7351 123.996 26.9924 123.996 26.2364C123.996 25.7488 123.791 25.1781 123.523 24.9222C122.491 23.9353 121.97 24.2791 117.783 28.708C115.58 31.0391 113.688 32.9464 113.58 32.9464C113.471 32.9464 113.382 28.5932 113.382 23.2725C113.382 15.8616 113.307 13.5349 113.059 13.3254C112.598 12.9363 111.766 12.7356 111.311 12.904ZM87.7534 30.6079C87.7534 31.5992 88.9947 35.5786 89.8902 37.4583C93.4966 45.028 100.523 50.3911 108.38 51.5713C110.27 51.8554 114.967 51.7474 116.489 51.3851L117.136 51.2308L122.285 69.9118C125.117 80.1862 127.493 88.7587 127.565 88.9618C127.667 89.2503 127.524 89.2375 126.913 88.9036C125.521 88.1434 122.831 87.1568 120.735 86.6378C118.782 86.1544 116.477 86.1314 69.7613 86.1314H20.8333L18.3711 86.8511C17.0166 87.2468 15.1172 87.9498 14.1498 88.413C12.7016 89.1068 12.4158 89.1727 12.5315 88.7871C12.6089 88.5298 16.0507 76.0755 20.1799 61.1112C24.309 46.147 27.8864 33.4299 28.1295 32.851C28.6107 31.7058 29.8262 30.5817 30.9774 30.2166C31.3782 30.0895 44.3167 29.9749 59.7298 29.9621L87.7534 29.9385V30.6079ZM120.214 93.6435C123.748 94.5983 126.903 96.7082 129.352 99.7544C130.547 101.241 131.114 102.347 132.322 105.546C133.107 107.623 133.154 107.957 133.259 112.174C133.386 117.311 133.053 119.472 131.663 122.527C129.532 127.207 125.683 130.682 120.89 132.254L118.948 132.89H69.8908H20.8333L19.0211 132.237C14.06 130.449 10.7585 127.49 8.54636 122.851C6.99905 119.607 6.65163 117.477 6.78211 112.04C6.88281 107.851 6.94831 107.332 7.54891 105.956C7.9103 105.129 8.40502 103.871 8.64888 103.161C9.99971 99.2226 14.9445 94.979 19.7242 93.6563C21.5462 93.1518 23.238 93.1338 69.9141 93.1193C117.167 93.1045 118.262 93.116 120.214 93.6435ZM30.032 103.659C24.244 105.302 21.5227 112.113 24.3861 117.788C25.3365 119.671 26.744 121.054 28.7291 122.055C29.9442 122.668 30.4943 122.772 32.4828 122.767C34.4472 122.761 35.0361 122.649 36.2365 122.049C38.2485 121.043 39.6297 119.67 40.6424 117.667C41.3947 116.179 41.5314 115.612 41.6199 113.613C41.7035 111.723 41.6197 111 41.171 109.743C40.0527 106.61 37.8263 104.472 34.8205 103.646C32.9483 103.13 31.8848 103.134 30.032 103.659ZM84.7046 105.288C83.6212 106.089 84.1123 107.927 85.5063 108.29C85.8167 108.37 92.4448 108.401 100.235 108.358C113.028 108.288 114.441 108.236 114.829 107.826C115.392 107.232 115.377 106.076 114.798 105.4C114.351 104.878 113.927 104.862 99.8088 104.862C87.078 104.862 85.2086 104.915 84.7046 105.288ZM35.1575 107.488C39.8028 109.934 39.428 117.123 34.5528 119.082C31.8806 120.156 28.4785 118.766 27.1872 116.074C24.5404 110.556 29.9385 104.741 35.1575 107.488ZM69.7155 117.902C68.527 118.152 68.1265 119.721 68.9924 120.731C69.4439 121.258 69.9081 121.269 91.8954 121.269C113.883 121.269 114.347 121.258 114.798 120.731C115.377 120.056 115.392 118.899 114.829 118.305C114.436 117.89 112.526 117.848 92.3394 117.817C80.2063 117.798 70.0254 117.836 69.7155 117.902Z" fill="url(#paint0_linear_301_386)"/>
<defs>
<linearGradient id="paint0_linear_301_386" x1="0" y1="0" x2="168.577" y2="79.0848" gradientUnits="userSpaceOnUse">
<stop stop-color="#208275"/>
<stop offset="1" stop-color="#2DD4BF"/>
</linearGradient>
</defs>
</svg>
