<svg width="140" height="140" viewBox="0 0 140 140" fill="none" xmlns="http://www.w3.org/2000/svg">
<path fill-rule="evenodd" clip-rule="evenodd" d="M55.0604 0.136296C38.6536 1.25836 24.2444 12.1756 19.0025 27.456C16.8605 33.7 16.6005 36.4167 16.7163 51.3448C16.8014 62.311 16.8299 62.9561 17.2893 64.3134C17.5553 65.0992 18.1064 66.2553 18.5139 66.8826C20.0313 69.2182 23.211 71.4612 25.5373 71.8368C26.5367 71.9982 26.4661 71.8789 27.5419 75.2304C28.4253 77.9825 30.2705 81.5631 32.0941 84.0652C33.8091 86.4181 37.5949 90.0209 40.0103 91.5988L41.8925 92.8286V93.9753V95.1223L35.2383 96.1214C27.5192 97.2807 25.5949 97.769 22.0736 99.4622C16.4584 102.162 11.8954 106.657 9.04276 112.297C8.45789 113.454 6.68313 118.68 4.06681 126.949C1.83008 134.019 0 139.857 0 139.924C0 139.99 29.4493 140.019 65.4426 139.987L130.885 139.929L130.951 137.707L131.018 135.484L127.595 135.42L124.173 135.357L124.107 133.146L124.041 130.935L129.546 130.859C134.994 130.784 135.063 130.777 136.223 130.173C137.614 129.449 138.984 128.02 139.595 126.655C140.021 125.704 140.034 124.884 139.974 103.536C139.915 82.4749 139.891 81.3645 139.482 80.603C138.738 79.2178 137.018 77.6636 135.685 77.1709C134.488 76.7283 133.841 76.7164 111.115 76.7164H87.7743L88.3446 74.8303C89.2174 71.9438 89.1947 71.9799 90.2647 71.8014C92.0244 71.5076 94.2769 70.194 95.8267 68.5575C97.5035 66.7868 98.4573 64.9492 98.8288 62.773C99.0165 61.6745 99.0663 56.9423 98.9989 46.6204C98.9082 32.6818 98.8813 31.9248 98.4062 29.8844C96.752 22.7789 92.7134 17.0047 86.6561 13.0846C85.0142 12.0219 84.0088 11.1706 83.1254 10.0951C81.5517 8.17932 79.0345 5.87531 77.2174 4.68786C75.4688 3.54523 72.0998 1.90969 70.2452 1.30294C66.9225 0.216312 60.7851 -0.255328 55.0604 0.136296ZM66.6577 5.04748C71.8345 6.15971 76.3719 9.0259 80.0181 13.4869C81.1222 14.8376 81.8758 15.5173 82.8293 16.0228C86.9642 18.2136 90.806 22.4129 92.6109 26.7141C94.2137 30.5346 94.2678 31.003 94.3722 41.934C94.4241 47.386 94.3806 51.8091 94.2755 51.7634C94.1704 51.7175 93.5638 51.4093 92.9273 51.0785C92.2908 50.7474 91.3273 50.346 90.7864 50.1862L89.8027 49.8956V45.2453V40.5947H87.9997C83.7042 40.5947 80.9388 39.0479 78.2545 35.1431C77.6939 34.328 77.1204 33.7382 76.8908 33.7412C73.2966 33.7867 66.1649 34.3141 63.1859 34.7544C51.2908 36.5127 41.0498 40.5339 30.4968 47.5895C27.8907 49.3318 27.0785 49.7586 25.9921 49.9571C24.9052 50.1555 23.7352 50.6187 21.467 51.7485C21.2059 51.8786 21.2619 38.9596 21.5325 36.5939C23.3788 20.4555 36.2926 7.27445 52.5392 4.94597C55.3689 4.5404 55.9249 4.51594 60.5242 4.5971C63.4544 4.64877 65.5011 4.79897 66.6577 5.04748ZM75.5854 39.247C77.2498 41.6194 80.5975 43.8518 83.6866 44.6492L85.2894 45.0631L85.3572 46.3152L85.4248 47.5676H76.3307C67.4411 47.5676 67.2155 47.5788 66.3105 48.063C65.2125 48.6508 63.6187 50.2429 63.0915 51.2787C62.8846 51.6852 62.6508 52.4824 62.5719 53.0505L62.4286 54.0832H57.8609H53.2933L53.1454 52.9973C52.9621 51.6518 51.871 49.728 50.8582 48.9651C49.0633 47.6128 48.3722 47.4638 43.8714 47.4583C41.312 47.4551 39.8013 47.3719 39.9367 47.2411C40.373 46.82 45.5358 44.3996 48.0259 43.4485C56.4975 40.2136 64.6651 38.5915 73.7433 38.3412C74.8818 38.3097 74.9519 38.3442 75.5854 39.247ZM48.0211 52.5716C48.7413 53.283 48.8966 54.1991 48.7999 57.1673C48.7207 59.5954 48.7163 59.6119 47.9644 60.2751L47.2084 60.9418H39.5565H31.9045L31.228 60.2735L30.5514 59.6052V56.4837V53.3621L31.228 52.6939L31.9045 52.0256H39.6865H47.4684L48.0211 52.5716ZM84.587 52.5684C85.2795 53.2526 85.4894 54.5692 85.3626 57.4343C85.2681 59.5655 85.2441 59.6475 84.5215 60.2852L83.7776 60.9418H76.1256H68.4736L67.7971 60.2735L67.1206 59.6052V56.4567C67.1206 53.3512 67.1291 53.2993 67.7425 52.6669L68.3644 52.0256H76.2011H84.0375L84.587 52.5684ZM25.9224 60.9477V67.3547L25.2017 66.9867C21.0469 64.8644 20.1209 59.2891 23.4137 56.2208C24.0454 55.6321 25.6322 54.5448 25.8646 54.5414C25.8963 54.5409 25.9224 57.4238 25.9224 60.9477ZM91.0757 55.192C92.1322 55.8328 93.2194 57.0294 93.7964 58.1858C94.5048 59.6055 94.5169 62.2097 93.8218 63.6852C93.2495 64.9003 91.8848 66.2981 90.6706 66.9128L89.8027 67.3524V61.0606C89.8027 54.2382 89.768 54.3987 91.0757 55.192ZM62.5712 59.683C62.8792 61.9031 64.4422 63.9113 66.6459 64.9183C67.6413 65.3733 68.1343 65.4035 75.625 65.4682C80.5317 65.5105 83.8767 65.4474 84.4069 65.3029C84.8779 65.1744 85.2943 65.0999 85.3322 65.1374C85.3702 65.1746 85.2971 66.2903 85.1698 67.6165C84.9159 70.2641 84.3254 72.81 83.4223 75.1516L82.8356 76.6732L79.6649 76.7578C76.9338 76.8308 76.3589 76.9133 75.5171 77.3525C73.9914 78.1485 72.9816 79.1494 72.2796 80.5613C71.6716 81.7847 71.629 82.0689 71.5522 85.4389L71.4707 89.0173L69.4691 89.9313C67.1481 90.9914 65.0681 91.6249 62.1444 92.1626C59.6741 92.6169 54.7871 92.5151 52.1883 91.9552C45.4566 90.5051 39.3026 86.4343 35.3431 80.8131C32.5053 76.7837 30.5514 70.9642 30.5514 66.5406V65.1122L31.5601 65.3248C32.1149 65.4417 36.0465 65.5064 40.2973 65.4686C47.7986 65.4019 48.06 65.3843 49.1832 64.8738C51.2017 63.9561 52.8077 62.0249 53.1185 60.1416C53.2016 59.6386 53.3104 59.0986 53.3602 58.9413C53.4282 58.7255 54.5507 58.6556 57.9396 58.6556H62.4286L62.5712 59.683ZM46.6014 77.7459C46.8976 79.8807 48.3583 81.8256 50.414 82.8228L51.7291 83.4607H57.8626C63.6109 83.4607 64.0622 83.4305 65.0493 82.9792C67.287 81.9566 68.8782 79.9685 69.1282 77.8828L69.2682 76.7164H67.0414C64.8829 76.7164 64.8107 76.7331 64.6751 77.2663C64.5982 77.5687 64.2756 78.0575 63.9578 78.3522C63.385 78.884 63.3338 78.8883 57.8239 78.8883H52.2677L51.709 78.2468C51.4019 77.894 51.1505 77.4055 51.1505 77.1609C51.1505 76.7498 50.9737 76.7164 48.8045 76.7164H46.4585L46.6014 77.7459ZM134.643 81.7307C134.928 81.9653 135.266 82.4314 135.395 82.7666C135.546 83.1587 135.63 89.4505 135.63 100.393V117.411H105.884H76.1386L76.2008 99.9013L76.2629 82.3921L76.9123 81.8405L77.5618 81.2888L105.844 81.2964C133.104 81.3037 134.144 81.3194 134.643 81.7307ZM49.1857 95.799C50.2055 96.0916 52.1277 96.5107 53.4574 96.7304C57.5163 97.4007 63.6953 96.857 67.6777 95.4789C68.4294 95.2188 69.0805 95.0059 69.1242 95.0059C69.1678 95.0059 69.2027 95.4947 69.2015 96.0919C69.196 98.8824 65.6013 102.332 61.6368 103.352C59.8739 103.806 55.9043 103.796 54.077 103.333C50.137 102.336 46.5215 98.7969 46.5215 95.938C46.5215 95.0972 46.5794 94.9792 46.9265 95.112C47.1492 95.1973 48.166 95.5064 49.1857 95.799ZM47.9442 115.338C50.8485 123.944 53.197 131.011 53.1634 131.044C53.0984 131.109 41.0623 121.942 40.5443 121.433C40.2902 121.184 40.6385 120.341 42.5831 116.503C43.873 113.957 44.8965 111.846 44.8571 111.81C44.8178 111.775 42.7378 110.732 40.2349 109.492L35.6838 107.237L37.0732 103.808C37.8373 101.922 38.5048 100.336 38.5566 100.284C38.6837 100.156 41.923 99.6233 42.336 99.662C42.557 99.6826 44.3843 104.79 47.9442 115.338ZM31.926 104.294C31.271 105.913 30.5387 107.726 30.2987 108.325L29.8622 109.413L34.3519 111.627L38.8413 113.841L36.6404 118.184C34.6451 122.122 34.4761 122.554 34.8307 122.809C35.0457 122.965 38.811 125.851 43.1983 129.224L51.175 135.357L39.9011 135.417C33.7003 135.449 28.6005 135.449 28.5679 135.417C28.5353 135.384 28.9482 131.891 29.4854 127.655C30.6098 118.788 30.8359 119.838 27.7416 119.566L25.9731 119.41L25.8319 120.296C25.7542 120.784 25.323 124.166 24.8735 127.813C24.424 131.459 24.0056 134.674 23.9435 134.957L23.8306 135.471H15.0399C10.2049 135.471 6.24916 135.41 6.24916 135.335C6.24916 135.26 7.61634 130.862 9.28764 125.561C12.5108 115.339 13.3607 113.277 15.4937 110.506C18.4218 106.702 22.2576 103.93 26.7325 102.382C28.5281 101.761 32.9432 100.924 33.0492 101.185C33.0865 101.276 32.581 102.675 31.926 104.294ZM71.5096 114.61L71.501 124.383L67.3157 127.584C65.0139 129.344 62.9954 130.862 62.8304 130.957C62.6652 131.052 64.5258 125.213 66.965 117.983C69.4043 110.752 71.4265 104.837 71.4591 104.837C71.4915 104.837 71.5142 109.234 71.5096 114.61ZM53.5229 107.803C54.1182 107.811 54.0427 108.05 52.7957 110.099L51.6636 111.959L50.8283 109.483C50.3691 108.122 49.9933 106.949 49.9933 106.876C49.9933 106.804 50.6964 106.982 51.5555 107.271C52.4147 107.56 53.3002 107.799 53.5229 107.803ZM65.0815 109.18C64.6188 110.563 64.1832 111.695 64.1136 111.695C63.9599 111.695 62.0942 108.729 61.9882 108.316C61.9407 108.131 62.5978 107.784 63.7645 107.377C64.7829 107.022 65.6851 106.717 65.7694 106.698C65.8536 106.68 65.5439 107.797 65.0815 109.18ZM80.7761 110.544V112.838H83.099H85.4218L85.3556 110.609L85.2894 108.38L83.0328 108.315L80.7761 108.249V110.544ZM89.8027 110.552V112.838H101.259H112.716V110.552V108.266H101.259H89.8027V110.552ZM60.1403 114.147L62.2273 117.628L60.0715 123.978C58.8701 127.517 57.8526 130.176 57.7732 129.985C57.3441 128.954 53.6965 117.943 53.6965 117.678C53.6965 117.505 54.5459 115.96 55.5839 114.244C57.5209 111.042 57.8827 110.495 57.9908 110.604C58.025 110.638 58.9923 112.233 60.1403 114.147ZM135.586 123.499C135.498 124.859 135.412 125.083 134.745 125.671L134.002 126.327H106.011C84.8029 126.327 77.8735 126.261 77.4136 126.053C76.5688 125.673 76.1471 124.74 76.1471 123.252V121.983H105.915H135.684L135.586 123.499ZM74.0164 129.19C74.3608 129.507 75.1114 129.996 75.6842 130.276C76.6552 130.75 77.0903 130.79 82.107 130.857L87.4882 130.929V133.2V135.471H76.0976C65.25 135.471 64.7262 135.452 65.1102 135.071C65.4868 134.698 73.173 128.669 73.3221 128.63C73.3593 128.621 73.6718 128.872 74.0164 129.19ZM119.61 133.128L119.544 135.357L105.831 135.416L92.1172 135.475V133.187V130.899H105.897H119.676L119.61 133.128Z" fill="url(#paint0_linear_301_454)"/>
<defs>
<linearGradient id="paint0_linear_301_454" x1="0" y1="0" x2="168.577" y2="79.0848" gradientUnits="userSpaceOnUse">
<stop stop-color="#208275"/>
<stop offset="1" stop-color="#2DD4BF"/>
</linearGradient>
</defs>
</svg>
