<svg width="140" height="140" viewBox="0 0 140 140" fill="none" xmlns="http://www.w3.org/2000/svg">
<path fill-rule="evenodd" clip-rule="evenodd" d="M35.9585 0.402322C34.5663 0.928627 32.7775 2.6333 32.1405 4.04099L31.6114 5.20982L31.5004 36.7977L31.3893 68.3854L15.7307 73.9818L0.0721123 79.578L0.0156974 103.75C-0.0293905 122.972 0.0161416 127.943 0.237805 128.025C0.39106 128.081 8.02601 130.799 17.2046 134.064L33.8931 140L40.4888 137.645L47.0848 135.289H81.7867C120.751 135.289 117.622 135.429 119.665 133.595C120.299 133.025 121.029 132.071 121.387 131.342L122.009 130.077L122.071 103.425L122.132 76.7723L128.512 76.6989C134.495 76.6299 134.956 76.5956 135.93 76.1464C137.398 75.4695 138.861 74.0401 139.475 72.6841C139.987 71.5541 140 71.368 140 65.3147V59.1046L139.408 57.9957C138.699 56.6665 137.475 55.4597 136.113 54.7478C135.14 54.239 134.944 54.2235 128.623 54.1576L122.132 54.0897L122.07 29.7608C121.999 1.87434 122.182 4.22774 119.916 1.99277C117.687 -0.20494 122.011 -0.00688052 76.6993 0.0130805C40.0655 0.0290493 36.8647 0.0596573 35.9585 0.402322ZM116.313 4.74961C116.65 4.92349 117.045 5.32737 117.191 5.64719C117.391 6.08656 117.456 12.0809 117.456 30.1715V54.1143H115.235H113.014V36.0385V17.9627H76.8103H40.6068V43.9269C40.6068 69.4659 40.5997 69.8891 40.1786 69.7556C39.9431 69.6808 38.9685 69.3353 38.013 68.9873L36.2757 68.3548L36.2179 37.3369C36.1751 14.3808 36.2264 6.15797 36.4152 5.69998C36.9633 4.36947 34.3114 4.45219 76.7659 4.44243C110.042 4.43489 115.79 4.47947 116.313 4.74961ZM58.8196 11.1964V13.5269H72.376H85.9323L85.869 11.2536L85.8057 8.98024L72.3127 8.92302L58.8196 8.86602V11.1964ZM90.3589 11.1981V13.5269H92.58H94.8011V11.1981V8.86935H92.58H90.3589V11.1981ZM108.572 38.3673V54.1143H98.1438H87.7161L79.1829 57.2968C74.2597 59.1328 70.3239 60.7274 69.879 61.0661C67.2895 63.0385 67.1542 67.229 69.6105 69.3879C70.4521 70.1275 71.7416 70.682 78.4922 73.2066C85.7879 75.9353 86.3783 76.1948 86.2408 76.6149C86.1589 76.865 86.0418 77.7349 85.9803 78.548C85.8324 80.5082 86.3139 81.9345 87.6088 83.3728C88.9847 84.9009 90.4293 85.5521 92.8623 85.7408L94.8102 85.8919L94.7502 90.2414C94.6922 94.423 94.6729 94.5909 94.2458 94.5909C93.9118 94.5909 92.8048 93.1053 89.783 88.6026C85.0521 81.5532 84.7665 81.2835 82.0299 81.2835C80.6481 81.2835 80.2981 81.3714 79.353 81.9547C78.6798 82.3703 78.0097 83.0392 77.5935 83.7108L76.9214 84.7958L76.8539 89.7632C76.8048 93.3854 76.7173 94.7078 76.5309 94.6457C76.3903 94.5989 75.4584 91.2993 74.4602 87.3131C73.4619 83.3271 72.521 79.7669 72.3695 79.4016C72.0008 78.5127 70.6207 77.2977 69.5961 76.96C68.2481 76.5157 66.5145 76.7723 65.3565 77.5876C64.8081 77.9735 64.3008 78.2894 64.2291 78.2894C64.1575 78.2894 59.8626 76.7765 54.6851 74.9275L45.271 71.5654V47.0929V22.6203H76.9214H108.572V38.3673ZM49.7132 33.8206V40.5852H76.8103H103.907V33.8206V27.0561H76.8103H49.7132V33.8206ZM99.4653 33.7097V35.9276H76.8103H54.1554V33.7097V31.4918H76.8103H99.4653V33.7097ZM49.7132 47.3511V49.6812L67.7595 49.6244L85.8057 49.5677L85.869 47.2943L85.9323 45.021H67.8228H49.7132V47.3511ZM49.7132 56.3322V58.5501H58.7086H67.7039V56.3322V54.1143H58.7086H49.7132V56.3322ZM113.014 60.8789V63.2077H101.686H90.3589V60.8789V58.5501H101.686H113.014V60.8789ZM122.068 65.3701L122.127 72.0793H119.792H117.456V65.3069V58.5346L119.733 58.5978L122.009 58.661L122.068 65.3701ZM134.24 58.8748C135.528 59.4122 135.669 60.0587 135.669 65.4405C135.669 70.5525 135.518 71.3303 134.426 71.8267C134.083 71.9828 132.477 72.0793 130.217 72.0793H126.562V65.3147V58.5501H130.012C132.539 58.5501 133.67 58.6371 134.24 58.8748ZM85.9168 65.3147C85.9168 69.6922 85.8541 70.9699 85.6391 70.9688C85.4865 70.9679 84.462 70.6339 83.3625 70.2262L81.3636 69.485V65.4098V61.3345L83.4736 60.5092C84.6341 60.0554 85.6585 59.6784 85.7502 59.6715C85.8419 59.6646 85.9168 62.2041 85.9168 65.3147ZM76.7202 67.5858C76.5907 67.7149 73.5651 66.6026 72.8679 66.1695C72.3269 65.8332 72.1874 64.898 72.6367 64.6207C72.7846 64.5293 73.759 64.1339 74.8023 63.7416L76.6993 63.0285L76.7628 65.2539C76.7979 66.478 76.7786 67.5273 76.7202 67.5858ZM113.014 69.8614V72.0793H101.686H90.3589V69.8614V67.6435H101.686H113.014V69.8614ZM48.5471 77.5426L63.2618 82.7881V103.772V124.755L50.5461 129.288C43.5524 131.78 36.9309 134.138 35.8315 134.526L33.8325 135.232L19.1734 129.993L4.51427 124.754L4.45763 103.778L4.40099 82.8017L19.0057 77.5721C27.0382 74.6957 33.6604 72.3323 33.7214 72.3197C33.7825 72.3073 40.4542 74.6576 48.5471 77.5426ZM94.1519 77.3851C94.7471 77.9795 94.8011 78.1641 94.8011 79.603V81.1726H93.4789C91.8904 81.1726 91.0996 80.8508 90.6754 80.0315C89.4903 77.7429 92.3386 75.5744 94.1519 77.3851ZM108.518 90.2105L108.461 103.684L88.0803 103.741L67.6999 103.797L67.7575 92.5404C67.7948 85.2221 67.8927 81.2835 68.0371 81.2835C68.1592 81.2835 69.1088 84.6277 70.1471 88.7148C71.1855 92.8019 72.2398 96.4934 72.4899 96.9179C73.4281 98.5101 75.8202 99.5357 77.6397 99.1258C78.824 98.8592 80.1484 97.8294 80.7357 96.7185C81.2287 95.7861 81.2525 95.5286 81.2525 91.1365C81.2525 88.6039 81.3131 86.374 81.3873 86.1811C81.4615 85.9881 81.746 85.8302 82.0194 85.8302C82.4232 85.8302 83.2377 86.9114 86.3448 91.5723C88.4499 94.7304 90.4393 97.5695 90.7654 97.8816C92.7539 99.7834 96.5688 99.4649 98.256 97.2561C99.3245 95.8571 99.4451 95.1604 99.4556 90.3214L99.4653 85.8302H101.686H103.907V83.5014V81.1726H101.714H99.5211L99.4116 79.3429C99.3514 78.3364 99.2284 77.3383 99.138 77.125C98.9843 76.7621 99.2877 76.7368 103.774 76.7368H108.575L108.518 90.2105ZM117.451 103.074C117.447 127.694 117.421 129.443 117.062 129.885C116.851 130.145 116.46 130.469 116.194 130.606C115.843 130.784 107.936 130.849 87.7638 130.838L59.8191 130.823L61.1517 130.318C61.8847 130.04 63.6589 129.387 65.0942 128.867L67.7039 127.922V127.17V126.418H76.6884C86.6062 126.418 87.4937 126.33 88.7455 125.233C90.1157 124.032 90.3491 123.203 90.3491 119.542C90.3491 116.887 90.2776 116.169 89.9385 115.423C89.4178 114.279 88.1385 113.219 86.902 112.908C86.2877 112.754 82.6576 112.667 76.815 112.667H67.6879L67.7515 110.504L67.815 108.342L90.4144 108.285L113.014 108.229V92.4828V76.7368H115.235H117.456L117.451 103.074ZM26.7226 81.4805C22.3084 82.5519 18.7663 86.5098 18.1652 91.0423C18.0135 92.1878 17.9536 98.1617 17.9964 107.898C18.0591 122.136 18.0862 123.023 18.4784 123.756C19.0654 124.853 19.4899 125.288 20.506 125.831C21.3771 126.297 21.6252 126.308 33.1662 126.378C41.5168 126.429 45.2817 126.375 46.1206 126.192C47.6034 125.87 49.1009 124.531 49.4667 123.202C49.6332 122.596 49.7099 117.453 49.7081 107.011C49.7052 90.3653 49.6757 89.9009 48.4538 87.3865C47.1403 84.6831 43.7023 82.0531 40.6514 81.4177C39.0203 81.0781 28.1794 81.1269 26.7226 81.4805ZM41.1001 86.3541C42.4592 86.9611 43.7569 88.1541 44.3753 89.3646C44.8295 90.2533 45.2666 92.4559 45.2693 93.8701L45.271 94.7018H33.9435H22.616V92.9669C22.616 90.5295 23.0776 89.3289 24.5997 87.8075C26.4834 85.9245 26.7495 85.8683 33.8816 85.8477C39.7765 85.8306 39.9571 85.8433 41.1001 86.3541ZM45.271 110.56V121.76H33.9435H22.616V110.56V99.3593H33.9435H45.271V110.56ZM27.0582 106.013V108.231H29.2793H31.5004V112.778V117.324H33.8325H36.1646V112.778V108.231H38.3857H40.6068V106.013V103.795H33.8325H27.0582V106.013ZM85.9168 119.542V121.76H76.8103H67.7039V119.542V117.324H76.8103H85.9168V119.542Z" fill="url(#paint0_linear_301_328)"/>
<defs>
<linearGradient id="paint0_linear_301_328" x1="0" y1="0" x2="168.577" y2="79.0848" gradientUnits="userSpaceOnUse">
<stop stop-color="#208275"/>
<stop offset="1" stop-color="#2DD4BF"/>
</linearGradient>
</defs>
</svg>
